<?xml version="1.0" encoding="UTF-8" standalone="no"?>
<!-- Created with Inkscape (http://www.inkscape.org/) -->

<svg
   version="1.1"
   width="1000"
   height="1000"
   inkscape:version="1.4 (86a8ad7, 2024-10-11)"
   sodipodi:docname="GRMfont.svg"
   id="svg1777"
   viewBox="0 0 1000 1000"
   xml:space="preserve"
   xmlns:inkscape="http://www.inkscape.org/namespaces/inkscape"
   xmlns:sodipodi="http://sodipodi.sourceforge.net/DTD/sodipodi-0.dtd"
   xmlns="http://www.w3.org/2000/svg"
   xmlns:svg="http://www.w3.org/2000/svg"><defs
     id="defs1746"><font
       horiz-adv-x="1000"
       id="font396"
       inkscape:label="フォント 1"
       horiz-origin-x="0"
       horiz-origin-y="0"
       vert-origin-x="512"
       vert-origin-y="768"
       vert-adv-y="1024"><font-face
         units-per-em="1000"
         ascent="750"
         cap-height="600"
         x-height="400"
         descent="200"
         id="font-face398"
         font-family="grmfont" /><missing-glyph
         d="M0,0h1000v1000h-1000z"
         id="missing-glyph400" /><glyph
         glyph-name="おひつじ"
         unicode="♈"
         id="glyph402"
         d="m 121.65387,849.32253 c -55.243963,-102.5625 -22.680751,-255.2957 68.1501,-338.9981 l 78.72819,84.4508 c -44.58073,42.1452 -77.74647,141.1263 -46.51777,197.7692 49.72845,85.8638 210.91127,29.4879 253.41352,-57.6374 V 61.8663 l 126.33212,-0.10985 v 673.04678 c 42.50615,87.1332 203.69607,143.4862 253.41937,57.6314 31.2287,-56.6429 -1.94279,-155.624 -46.52352,-197.7692 l 78.72809,-84.4509 c 90.83085,83.7024 123.40003,236.4357 68.15594,338.9981 -121.56523,191.72297 -372.53766,42.9914 -416.89369,0.3412 -35.8971,39.9078 -283.56262,206.61697 -416.99235,-0.2313 z" /><glyph
         glyph-name="おうし"
         unicode="♉"
         id="glyph405"
         d="m 511.63278,163.04717 c -328.14263,13.17398 -301.45827,514.23252 0.004,512.60774 301.46235,-1.62478 374.97943,-497.81036 5.08506,-512.60774 -1.68552,-0.0666 -3.40361,-0.0666 -5.08913,0 M 816.99446,935.98671 695.84172,811.37851 c -37.33617,-38.40103 -109.5324,-66.47035 -183.19742,-66.01592 -72.8763,0.4496 -147.22265,29.0148 -184.69888,66.45475 L 206.2786,933.36631 115.74915,837.84798 239.98757,711.87192 C 259.52065,692.58323 260.626,694.91343 241.75044,675.56337 33.039371,448.92592 183.26623,41.0193 514.18549,41.6185 c 330.89889,-0.59087 481.1339,407.34903 272.43097,633.94487 -18.34702,24.23205 -17.51176,23.74208 2.52217,42.16007 l 121.0617,122.34277" /><glyph
         glyph-name="ふたご"
         unicode="♊"
         id="glyph407"
         d="M 845.73647,934.4542 C 854.78615,915.99914 627.94355,821.25315 499.40572,834.32614 v 0.004 c 0,-10e-4 -0.0407,-0.004 -0.0407,-0.004 -0.52927,0.0541 -1.08988,0.0766 -1.6159,0.13399 v -0.26215 C 369.21127,821.12495 142.36865,915.87089 151.41833,934.326 L 88.583532,806.18991 c 0,0 44.809938,-23.19149 109.286698,-48.68952 L 196.34349,221.59255 C 131.86674,196.09452 87.056802,172.90299 87.056802,172.90299 L 149.8916,44.76691 c -9.04969,18.4551 217.79294,113.20108 346.33077,100.12805 v -0.26215 c 0.52601,0.0574 1.08663,0.0799 1.6159,0.13399 0,0 0.0407,-0.004 0.0407,-0.004 v 0.004 C 626.4168,157.83979 853.2594,63.09385 844.20972,44.63879 l 62.8348,128.13608 c 0,0 -44.80994,23.19149 -109.2867,48.68952 l 1.52674,536.16387 c 64.47677,25.49803 109.28671,48.68952 109.28671,48.68952 z M 676.38223,716.19858 674.8555,262.89469 c -59.24473,16.17683 -121.73225,27.06895 -176.97652,23.81445 v 0.0487 c -55.64529,3.57129 -118.79643,-7.39807 -178.62827,-23.73522 l 1.52674,453.04786 c 59.83183,-16.33716 122.98297,-27.30651 178.62827,-23.73522 v 0.0487 c 55.24427,-3.25451 117.73178,7.63766 176.97651,23.81449 z" /><glyph
         glyph-name="かに"
         unicode="♋"
         id="glyph409"
         d="m 486.95898,919.38086 c -151.82901,-0.1579 -298.52675,-45.69092 -376.38671,-145.53711 -0.84932,-1.08873 -1.666,-2.20987 -2.43165,-3.35547 -72.812566,-108.9145 -3.26631,-264.05678 131.56641,-290.23242 175.72075,-37.392 300.08155,131.36888 238.99024,265.99023 -15.52796,34.21457 12.21888,72.04683 51.76953,69.91407 107.11631,-5.77127 299.32676,-114.5516 292.74218,-121.49805 l 70.92383,98.00586 C 795.74841,874.321 638.788,919.53876 486.95898,919.38086 Z M 285.97266,765.87891 c 84.26278,0.65147 146.53718,-107.8564 61.45507,-171.33399 -108.80229,-72.98808 -226.08376,74.16516 -121.76367,151.54883 20.24642,13.67165 40.86334,19.63482 60.3086,19.78516 z m 427.42773,-278.6875 c -149.45164,0.77062 -246.39721,-149.26893 -191.0332,-271.26953 15.52795,-34.21457 -12.21888,-72.04685 -51.76953,-69.91407 -107.11632,5.77126 -299.32676,114.55354 -292.74219,121.5 L 106.93164,169.5 C 303.70045,6.19393 734.77227,-11.3681 890.49219,188.32422 c 0.84932,1.08874 1.666,2.20986 2.43164,3.35547 72.81258,108.9145 3.26632,264.05678 -131.56641,290.23242 -16.47382,3.5055 -32.49652,5.19958 -47.95703,5.2793 z m 0.81445,-99.82032 c 84.41323,0.50983 145.94562,-108.42264 61.18555,-171.29687 -107.98088,-72.9155 -226.4801,73.42257 -121.76367,151.54883 20.40043,13.68526 41.09815,19.63039 60.57812,19.74804 z" /><glyph
         glyph-name="しし"
         unicode="♌"
         id="glyph411"
         d="M 287.27996,410.9614 C 232.57883,397.18393 79.473988,323.29923 118.55452,171.38979 157.63506,19.48036 352.49856,64.22238 383.46164,117.37892 c 30.96308,53.15653 43.5561,144.22006 8.1873,246.22709 C 423.19266,490.99807 534.9486,672.41366 594.45075,671.1123 704.58758,668.70352 588.90427,428.08591 581.54205,209.72388 575.32096,25.20771 748.55601,-22.4957 841.47909,90.48124 c 48.88843,59.43897 71.24306,152.76145 106.09131,267.20527 l -107.99575,26.10574 c -0.2564,0.062 -40.06804,-240.17518 -117.09038,-235.37772 -77.02233,4.79744 -31.62723,114.11424 26.21353,372.24535 57.84077,258.1311 -43.02557,275.00301 -144.85891,287.05106 C 502.00562,819.75909 332.00977,576.62605 287.27996,410.9614 Z M 265.47983,297.4505 c 61.30293,3.00313 107.16445,-124.56002 1.40483,-142.84425 -105.75963,-18.28422 -62.70775,139.84113 -1.40483,142.84425 z" /><glyph
         glyph-name="おとめ"
         unicode="♍"
         id="glyph413"
         d="m 442.96833,933.72305 c -33.41661,-0.0624 -65.9447,-5.44707 -91.87855,-23.94174 -22.10337,15.19078 -50.86075,23.40637 -86.86898,23.25483 C 188.22792,932.89383 116.74976,905.38255 117.25448,758.20906 L 107.84953,227.325 h 102.48221 l 9.40494,530.88406 c 2.22928,37.20082 51.91212,45.75463 77.06444,27.57811 -0.54466,-8.49714 -0.83156,-17.4294 -0.79911,-26.89115 L 295.23864,227.325 h 6.48863 97.77677 l 9.40494,530.88406 c 0.22881,8.21136 0.0692,16.12211 -0.2683,23.87874 23.78372,24.20484 80.95864,15.7281 81.23911,-23.19178 l -0.76337,-318.6981 c 0.87533,-72.69825 20.46683,-131.55625 56.81132,-181.5766 62.127,-85.5047 -66.52926,-98.42794 -108.71448,-109.55601 L 434.15979,37.87705 c 82.21988,12.86606 170.4692,36.4726 209.50888,111.913 0,0 15.11218,13.8626 30.0525,11.62393 14.25533,-2.13603 95.12032,-113.95005 112.08315,-114.02703 l 76.96045,89.06284 -74.77482,105.92974 c -20.66966,29.28169 86.99153,10.33901 99.20522,269.62472 1.52707,152.5882 -66.39389,279.21567 -155.82856,279.21534 -57.71636,-0.15688 -114.04466,-42.44376 -142.89307,-95.26914 l -0.81703,62.94557 c 2.9497,105.88994 -40.64003,175.26502 -144.68818,174.82703 z M 722.24792,658.37093 c 44.38766,2.52704 42.31932,-131.05554 42.31924,-179.28264 8e-5,-48.2271 -33.507,-171.08421 -77.95903,-171.08358 -44.45199,-6.3e-4 -29.58059,135.76322 -29.58051,183.99031 -8e-5,48.2271 8.55441,163.14984 65.2203,166.37591 z" /><glyph
         glyph-name="てんびん"
         unicode="♎"
         id="glyph415"
         d="M 512.46447,891.46352 C 332.7259,891.46581 187.01806,739.65205 187.019,552.38011 187.30806,496.02933 201.07202,440.64206 227.06601,391.2256 H 122.26983 V 272.31172 l 304.01151,-2.34061 V 391.2256 h -44.54371 c -52.80577,40.85936 -83.82011,94.32721 -84.04212,161.15451 -9.8e-4,119.61918 96.82986,226.10532 216.27783,226.10641 119.45028,0.002 216.28474,-106.48489 216.28377,-226.10641 C 730.03522,485.55281 699.0208,432.08496 646.21503,391.2256 H 609.13201 V 272.31172 H 912.21913 V 391.2256 H 797.857 c 25.99398,49.41646 39.75778,104.80373 40.047,161.15451 9.4e-4,187.26952 -145.70324,339.08228 -325.43953,339.08341 z M 92.904001,178.26072 V 53.30029 L 941.57902,53.02608 V 177.9865 Z" /><glyph
         glyph-name="さそり"
         unicode="♏"
         id="glyph417"
         d="m 431.98942,962.78772 c -37.20257,-0.0736 -73.3075,-7.05399 -100.60328,-32.04293 -23.19735,20.1002 -54.70525,31.13602 -95.42438,30.95513 C 159.22769,961.54829 87.052339,932.23561 87.56198,775.42524 L 78.071334,213.29747 H 181.55312 l 9.49065,562.12777 c 3.01337,53.06052 91.93544,51.46566 92.28693,0 l -9.49065,-562.12777 h 103.73471 l 9.49667,563.21556 c 3.01337,53.06052 91.93544,51.4657 92.28693,0 l -9.49667,-563.21556 h 4.07086 C 472.89934,62.00409 588.16212,-112.2572 809.321,103.90031 l 63.09834,-84.56594 105.40882,348.71861 -311.04154,-73.11722 57.73879,-77.38783 -61.07498,-68.43701 c -65.10588,-23.81058 -89.75848,14.00936 -94.29825,97.47844 3.06992,176.63935 6.02009,353.28107 8.93664,529.92367 2.97846,112.82359 -41.0364,186.74136 -146.09939,186.27469 z" /><glyph
         glyph-name="いて"
         unicode="♐"
         id="glyph419"
         d="m 456.13687,894.97283 -1.5267,-125.326 h 216.4628 l -280.019,-298.2567 -118.1552,119.8221 h -1.0557 l -89.9818,-89.0043 v -1.0848 l 119.8069,-121.4986 -190.8422,-195.8367 v -1.2254 l 92.7194,-103.2061 h 1.1212 l 195.3984,200.5121 126.2184,-128.0019 h 1.0614 l 89.9822,89.0039 v 1.0852 l -127.8701,129.6722 301.57247,317.2986 v -269.755 h 124.38714 l 3.05347,478.9347 z" /><glyph
         glyph-name="やぎ"
         unicode="♑"
         id="glyph421"
         d="M 300.96397,955.37793 C 267.9626,942.88281 237.7449,924.46697 220.064,892.60038 11.184242,945.00779 31.787469,609.89894 36.023735,560.81272 l 94.960325,1.40279 13.86413,143.63569 c -11.22606,49.30881 84.20908,121.77415 83.21205,10.50696 l 33.64539,-399.36543 95.8707,14.00892 -29.06484,419.82774 c -5.28413,100.62918 113.25928,92.04904 136.06091,14.01953 l 47.53285,-444.48551 c 32.36216,-115.40409 127.10012,-46.8621 102.0636,-120.00788 5.84527,-39.54294 -99.37862,-37.88007 -94.86799,-30.77513 L 500.3734,63.02455 c 148.64633,14.53045 200.70172,9.75044 206.06582,137.39977 0.40105,9.55197 3.01165,18.53029 7.27318,26.39474 108.4982,33.47531 220.7744,96.83667 229.75348,240.50283 5.6447,272.30765 -301.18703,289.15011 -366.26147,124.46512 L 563.52448,765.79443 C 576.01541,938.09012 394.09464,990.90074 300.96397,955.37793 Z M 709.11746,556.86708 C 796.29365,589.2201 824.33387,456.332 818.39091,438.76309 812.44798,421.19422 778.66495,370.92559 722.6491,374.05014 666.63325,377.1747 621.94128,524.51405 709.11746,556.86708 Z" /><glyph
         glyph-name="みずがめ"
         unicode="♒"
         id="glyph423"
         d="M 310.10979,887.4097 83.276132,678.36414 188.16786,564.97876 294.30582,667.53884 396.1856,546.30266 502.32355,648.86274 603.48801,545.66264 709.62596,648.22272 792.54081,550.22194 908.02443,652.28831 725.42993,868.09358 609.255,761.02905 518.12793,868.7336 410.12899,769.20291 Z M 329.01528,436.95244 102.18162,227.90689 207.07334,114.5215 313.21131,217.08158 415.09109,95.84541 521.22904,198.40549 622.39349,95.20539 728.53144,197.76547 811.4463,99.76469 926.92991,201.83106 744.33541,417.63633 628.16049,310.5718 537.03341,418.27635 429.03447,318.74566 Z" /><glyph
         glyph-name="うお"
         unicode="♓"
         id="glyph425"
         d="M 248.3413,913.70267 138.80381,851.17052 c 13.38236,7.63967 71.26524,-158.76667 80.91096,-289.55881 h -57.58649 c -0.41568,0 -0.75156,-0.34329 -0.75156,-0.76801 V 425.06404 c 0,-0.42455 0.33385,-0.76801 0.75156,-0.76801 h 55.56468 C 204.22551,294.55473 143.85222,133.64373 130.78824,141.60662 L 238.89425,75.70999 c 0,0 20.20464,45.48611 42.59393,111.04478 l 36.58795,125.05796 c 8.84816,37.03878 15.98637,75.3452 19.71038,112.4833 H 685.3757 c 2.61459,-39.3833 9.13803,-80.35709 17.65885,-119.98664 L 736.81941,178.16035 C 757.73978,111.9325 776.92619,65.83554 776.92619,65.83554 l 109.53748,62.53202 c -13.59936,-7.76337 -73.21213,164.25094 -81.39422,295.92847 h 70.06868 c 0.41568,0 0.75157,0.34329 0.75157,0.76801 V 560.8437 c 0,0.42455 -0.33385,0.76801 -0.75157,0.76801 h -67.1463 c 14.74258,128.57012 73.42303,284.15802 86.27245,276.32587 l -108.10601,65.89043 c 0,0 -20.21075,-45.48603 -42.59963,-111.04469 L 706.97639,667.72535 C 698.63185,632.79557 691.87553,596.75716 687.99355,561.61171 H 339.48017 c -2.88085,37.41773 -9.18729,76.12985 -17.24724,113.61703 l -33.78527,126.149 C 267.5277,867.60538 248.3413,913.70267 248.3413,913.70267 Z" /><glyph
         glyph-name="きんぐ"
         unicode="♔"
         id="glyph427"
         d="m 909.92773,941.86914 -302.88085,-2.05078 -1.00196,-82.03906 h 141.8086 L 438.41602,533.75195 A 249.53878,249.76939 89.999723 0 1 362.35742,568.6543 249.53878,249.76939 89.999723 0 1 56.453125,392.20312 249.53878,249.76939 89.999723 0 1 233.06641,86.58203 249.53878,249.76939 89.999723 0 1 538.9707,263.0332 249.53878,249.76939 89.999723 0 1 503.45117,468.98047 L 826.43945,804.93945 V 628.35742 h 81.48828 z M 301.88086,501.71484 a 180,180 0 0 0 39.85742,-6.00781 180,180 0 0 0 127.2793,-220.45312 180,180 0 0 0 -220.45313,-127.2793 180,180 0 0 0 -127.27929,220.45312 180,180 0 0 0 180.5957,133.28711 z" /><glyph
         glyph-name="くいーん"
         unicode="♕"
         id="glyph429"
         d="m 477.20898,978.2793 c -165.68542,0 -300,-134.31458 -300,-300 0.01,-133.23264 87.8876,-250.49638 215.75977,-287.90821 -0.58358,-25.63699 -0.27772,-51.94365 0,-79.33007 l -236.03906,2.04687 -0.99024,-0.63867 -1.94922,-108.25391 0.9961,-0.66015 237.98242,-2.07032 V 30.10742 h 182.95898 v 169.7793 l 221.56641,-1.91406 0.98633,0.63281 1.94922,108.25586 -0.99805,0.66015 -223.50391,1.94141 c 5.73662,32.08986 -4.37888,62.38328 0,91.83008 112.50021,46.04557 201.0146,155.42803 201.28125,276.98633 0,165.68542 -134.31458,300 -300,300 z m 0.002,-117.79102 c 104.9341,0 190,-85.0659 190,-190 0,-104.9341 -85.0659,-190 -190,-190 -104.9341,0 -190,85.0659 -190,190 0,104.9341 85.0659,190 190,190 z" /><glyph
         glyph-name=""
         unicode="ァ"
         id="glyph86"
         d="m 964.05123,617.8272 -764.61919,-3.24555 c -0.5781,0 -1.03713,-0.44175 -1.0267,-0.98064 l 1.63624,-84.63601 1.06431,-0.96897 642.75083,2.72785 c 31.79429,0.13546 -157.10091,-160.2414 -146.67924,-119.89683 l 16.85701,65.25684 c -29.29956,7.06753 -60.16958,12.77935 -90.1029,18.88924 l -0.62211,-0.37368 -114.64876,-452.25392 0.40064,-0.58378 89.70242,-18.30934 0.62622,0.37367 65.51319,259.27049 c 132.266,19.55139 300.9201,216.52288 300.21226,333.7608 0,0.5388 -0.48621,0.97121 -1.06422,0.96879 z" /><glyph
         glyph-name=""
         unicode="ア"
         id="glyph87"
         d="m 973.09585,849.74697 -931.145607,-3.7521 c -0.704,0 -1.263,-0.5107 -1.2503,-1.1337 l 1.9926,-97.8457 1.2961,-1.1202 782.735507,3.1536 c 38.7188,0.1566 -191.3159,-185.2513 -178.6245,-138.6099 l 20.5283,75.4419 c -35.6807,8.1706 -73.2739,14.7739 -109.7264,21.8374 l -0.7576,-0.432 -139.6181,-522.8401 0.4879,-0.6749 109.2387,-21.167 0.7626,0.432 79.7813,299.7365 c 161.0722,22.6029 366.4575,250.317 365.5955,385.853 0,0.6229 -0.5921,1.1228 -1.296,1.12 z" /><glyph
         glyph-name=""
         unicode="ィ"
         id="glyph88"
         d="m 877.34302,603.93953 -633.40793,-321.77578 -0.0894,-0.75738 96.12381,-57.8612 1.32124,-0.0473 347.62553,176.5965 L 568.98078,18.12765 569.4883,17.53407 683.05043,-1.122 l 0.79283,0.3818 148.77788,473.83491 142.0771,72.17888 0.0841,0.75745 -96.12381,57.86113 z" /><glyph
         glyph-name=""
         unicode="イ"
         id="glyph89"
         d="m 841.47616,956.45762 -745.953836,-489.5135 -0.10529,-1.1522 113.203386,-88.0235 1.55596,-0.072 409.39278,268.654 -141.246,-581.0811 0.5977,-0.903 133.7402,-28.3812 0.9337,0.5808 175.2132,720.839 167.3218,109.8048 0.099,1.1523 -113.2034,88.0235 z" /><glyph
         glyph-name=""
         unicode="ゥ"
         id="glyph90"
         d="m 701.46499,631.31696 -75.13829,-157.38715 -253.3708,37.38328 -0.57692,-0.14295 -144.04571,-303.09475 0.29994,-0.47689 76.70783,-29.56384 0.57716,0.13949 117.69285,247.6482 411.83906,-70.3037 -185.83457,-325.9782 0.29981,-0.48018 76.70797,-29.56407 0.57714,0.1395 240.2875,416.01865 -255.44385,46.21275 67.55574,152.55168 z" /><glyph
         glyph-name=""
         unicode="ウ"
         id="glyph91"
         d="m 639.1496,993.11176 -100.6,-231.3346 -339.2292,54.9476 -0.7724,-0.2101 -192.8577075,-445.50204 0.40158,-0.70095 102.7013975,-43.45424 0.77273,0.20503 157.5748,364.00428 551.3967,-103.33549 -248.8073,-479.13714 0.4014,-0.70584 102.7016,-43.45448 0.7727,0.20504 321.71242,611.48253 -342.00472,67.92555 90.448,224.22715 z" /><glyph
         glyph-name=""
         unicode="ェ"
         id="glyph92"
         d="m 313.7685,621.43191 -0.90699,-0.77026 -13.24561,-85.56978 0.60671,-1.19156 280.65923,-62.99079 -90.52783,-291.30004 -61.80471,12.56916 -0.90687,-0.77413 -13.24554,-85.56591 0.60664,-1.19136 477.22311,-97.05995 0.90705,0.7744 13.24561,85.56564 -0.60671,1.19549 -345.62745,70.29271 90.09736,289.92767 67.423,-15.13296 0.91015,0.7744 13.24257,85.56591 -0.60373,1.19549 z" /><glyph
         glyph-name=""
         unicode="エ"
         id="glyph93"
         d="m 35.275925,946.11958 -1.4894,-1.15443 -21.7511,-128.2448 0.9963,-1.78581 460.880905,-94.40529 -148.6591,-436.57598 -101.4918,18.83764 -1.4892,-1.16026 -21.751,-128.23894 0.9962,-1.78554 783.6657,-145.46528 1.4895,1.16058 21.75107,128.23862 -0.9963,1.79169 -567.56757,105.34877 147.9522,434.5192 110.7178,-22.67993 1.4946,1.16059 21.7461,128.23894 -0.9914,1.7917 z" /><glyph
         glyph-name=""
         unicode="ォ"
         id="glyph94"
         d="m 544.13622,575.33831 4.9488,-228.47785 -323.5907,29.50107 -23.2406,-73.29182 0.9911,-1.01481 295.7605,-33.50295 -271.4321,-257.67881 h 0.2603 131.5182 l 185.9242,177.9797 0.8287,-177.9797 h 0.6404 111.7649 0.6355 l -1.1387,243.37064 335.8408,-34.21961 0.2315,157.19054 -104.2149,-0.11683 -0.8883,-64.2021 -228.3129,22.07655 -3.7652,155.46064 141.9978,-14.55018 -0.9035,75.81578 z" /><glyph
         glyph-name=""
         unicode="オ"
         id="glyph95"
         d="m 438.70829,964.96352 6.10837,-386.18595 -399.412552,49.86434 -28.6862,-123.8819 1.223329,-1.71529 L 383.00258,446.41617 47.970123,10.87314 h 0.321292 162.334765 l 229.48886,300.83117 1.02287,-300.83117 h 0.79046 137.95299 0.7844 l -1.40551,411.35857 414.53303,-57.83989 0.28574,265.69218 -128.63392,-0.19747 -1.09644,-108.51795 -281.80982,37.31501 -4.64744,262.7682 175.26988,-24.59352 -1.1152,128.14804 z" /><glyph
         glyph-name=""
         unicode="カ"
         id="glyph96"
         d="M 300.87435,984.19739 207.15884,886.89677 397.07237,694.9942 198.139,501.5927 289.68807,399.56639 493.6197,603.37555 637.16879,455.6903 279.12585,87.24776 l 4.6384,13.56753 99.7366,-91.68035 444.96955,445.7226 -242.77506,242.14894 206.83786,195.11266 -104.02734,97.39592 h -0.3457 L 491.24947,792.07435 Z" /><glyph
         glyph-name=""
         unicode="ガ"
         id="glyph97"
         d="M 676.88086,995.4043 479.9707,797.96289 289.59375,990.08594 195.87891,892.78516 385.79297,700.88281 186.85938,507.48242 278.4082,405.45508 482.33984,609.26367 625.88867,461.58008 276.99805,102.55469 372.2207,15.02344 817.19141,460.74609 574.41602,702.89648 781.25391,898.00781 677.22656,995.4043 Z m -399.88281,-892.84961 -4.51367,4.15039 -4.63868,-13.56836 z m 542.81054,570.4375 c -0.13603,0 -0.24609,-0.10811 -0.24609,-0.24414 V 538.76562 c 0,-0.13603 0.11006,-0.24609 0.24609,-0.24609 h 74.94532 c 0.13603,0 0.24414,0.11006 0.24414,0.24609 v 133.98243 c 0,0.13603 -0.10811,0.24414 -0.24414,0.24414 z m 93.28711,0 c -0.13603,0 -0.24609,-0.10811 -0.24609,-0.24414 V 538.76562 c 0,-0.13603 0.11006,-0.24609 0.24609,-0.24609 h 74.94532 c 0.13603,0 0.24609,0.11006 0.24609,0.24609 v 133.98243 c 0,0.13603 -0.11006,0.24414 -0.24609,0.24414 z" /><glyph
         glyph-name=""
         unicode="キ"
         id="glyph98"
         d="M 434.12305,965.90319 434.0332,853.58288 338.14453,947.93639 244.75,854.75085 433.88672,668.0028 433.75781,504.3778 211.79102,722.78796 118.39648,629.60241 433.61133,318.36803 433.37305,16.70008 h 158.55273 l -0.13672,145.48827 94.53125,-93.33789 94.36914,94.1582 -189.07422,186.04492 -0.15234,163.36328 221.21094,-218.41797 94.36914,94.15821 -315.75586,310.69336 -0.25,267.05273 z" /><glyph
         glyph-name=""
         unicode="ギ"
         id="glyph99"
         d="M 248.42188,989.49414 136.60547,879.4082 401.16602,610.26172 401.06836,518.03906 132.91992,789.89648 21.103516,679.81055 400.83203,293.5 l -0.0312,-28.71289 h 0.2461 L 400.79102,22.39453 H 559.3418 L 559.20312,132.38281 686.49805,2.88086 799.48242,114.11523 559.23633,357.68359 l -0.11524,91.88477 242.88086,-247.08984 112.98438,111.23437 -356.14649,361.07227 -0.375,298.64453 H 401.55078 L 401.4043,834.39648 Z m 489.65039,-91.36328 c -0.13604,0 -0.2461,-0.1081 -0.2461,-0.24414 V 763.9043 c 0,-0.13604 0.11006,-0.2461 0.2461,-0.2461 h 74.94531 c 0.13604,0 0.24609,0.11006 0.24609,0.2461 v 133.98242 c 0,0.13604 -0.11005,0.24414 -0.24609,0.24414 z m 93.28906,0 c -0.13604,0 -0.2461,-0.1081 -0.2461,-0.24414 V 763.9043 c 0,-0.13604 0.11006,-0.2461 0.2461,-0.2461 h 74.94336 c 0.13604,0 0.24609,0.11006 0.24609,0.2461 v 133.98242 c 0,0.13604 -0.11005,0.24414 -0.24609,0.24414 z" /><glyph
         glyph-name=""
         unicode="ク"
         id="glyph100"
         d="M 437.25353,1000.4718 887.38372,601.83193 188.1906,-8.9739 78.878172,92.3679 680.26665,616.77076 450.15932,815.65002 189.64672,588.96802 76.144102,677.34052 Z" /><glyph
         glyph-name=""
         unicode="グ"
         id="glyph101"
         d="M 367.82831,980.61055 258.85844,865.806 28.679036,637.09543 134.60709,516.44044 370.56951,757.45951 536.66514,582.8125 132.97551,158.23785 243.15439,54.72542 758.01509,581.82623 477.1078,868.18735 Z m -234.8528,-822.3727 -5.22265,4.90816 -5.36729,-16.04566 z m 628.06785,674.58542 c -0.15736,0 -0.28475,-0.12784 -0.28475,-0.28879 v -158.4443 c 0,-0.16083 0.12739,-0.29103 0.28475,-0.29103 h 86.7167 c 0.15736,0 0.28255,0.1302 0.28255,0.29103 v 158.4443 c 0,0.16095 -0.12519,0.28879 -0.28255,0.28879 z m 107.93938,0 c -0.15736,0 -0.28476,-0.12784 -0.28476,-0.28879 v -158.4443 c 0,-0.16083 0.1274,-0.29103 0.28476,-0.29103 h 86.7167 c 0.15747,0 0.28475,0.1302 0.28475,0.29103 v 158.4443 c 0,0.16095 -0.12728,0.28879 -0.28475,0.28879 z" /><glyph
         glyph-name=""
         unicode="ケ"
         id="glyph102"
         d="M 497.82142,996.33816 140.75657,641.18591 228.43044,552.58641 427.7226,755.08171 618.14024,560.69688 78.644531,84.91797 178.58008,-8.9746 718.49891,463.33501 830.4554,347.42757 l 83.4075,84.59267 -406.21485,400.31155 80.83408,82.29153 z" /><glyph
         glyph-name=""
         unicode="ゲ"
         id="glyph103"
         d="M 435.25391,994.76172 4.7792969,564.21484 109.31061,450.5753 395.84805,736.68176 571.79282,556.3265 175.64648,134.76953 285.82422,31.25586 690.95312,446.01758 823.00586,307.51367 938.00696,420.52594 511.92665,848.88407 546.15517,883.7747 Z m -259.60743,-859.99219 -5.22265,4.9082 -5.36719,-16.04687 z m 628.06641,674.58594 c -0.15736,0 -0.2832,-0.12811 -0.2832,-0.28906 V 650.62109 c 0,-0.16083 0.12584,-0.29101 0.2832,-0.29101 h 86.7168 c 0.15736,0 0.2832,0.13018 0.2832,0.29101 v 158.44532 c 0,0.16095 -0.12584,0.28906 -0.2832,0.28906 z m 107.93945,0 c -0.15736,0 -0.2832,-0.12811 -0.2832,-0.28906 V 650.62109 c 0,-0.16083 0.12584,-0.29101 0.2832,-0.29101 h 86.7168 c 0.15747,0 0.28516,0.13018 0.28516,0.29101 v 158.44532 c 0,0.16095 -0.12769,0.28906 -0.28516,0.28906 z" /><glyph
         glyph-name=""
         unicode="コ"
         id="glyph104"
         d="M 802.67173,957.96465 262.4599,924.50728 137.7765,957.96465 v -146.9041 l 124.6834,-46.15149 540.21183,46.15149 V 181.73576 L 259.18006,206.05336 137.7765,178.45592 V 23.82617 L 259.18006,46.11319 802.67173,23.82617 v 0 0 h 148.99038 l -4.16851,934.13848 z" /><glyph
         glyph-name=""
         unicode="ゴ"
         id="glyph105"
         d="m 98.953125,977.30469 v -146.9043 l 111.117185,-46.15234 481.4336,46.15234 V 201.07422 L 207.14844,225.39258 98.953125,197.79492 V 43.16602 L 207.14844,65.45312 691.50391,43.16602 H 824.2832 l -2.98437,750.46289 h 74.54687 c 0.13604,0 0.2461,0.11005 0.2461,0.24609 v 133.98242 c 0,0.13604 -0.11006,0.2461 -0.2461,0.2461 h -74.94531 c -0.0535,0 -0.0965,-0.0278 -0.13672,-0.0566 l -0.19531,49.25782 H 691.50391 L 210.07031,943.8457 Z M 914.1875,928.10352 c -0.13604,0 -0.24414,-0.11006 -0.24414,-0.2461 V 793.875 c 0,-0.13604 0.1081,-0.24609 0.24414,-0.24609 h 74.94531 c 0.13604,0 0.2461,0.11005 0.2461,0.24609 v 133.98242 c 0,0.13604 -0.11006,0.2461 -0.2461,0.2461 z" /><glyph
         glyph-name=""
         unicode="サ"
         id="glyph106"
         d="m 648.58594,975.83594 -0.29492,-374.3711 -294.92774,73.31055 1.15039,271.50195 H 197.59961 L 195.85938,713.92578 67.785156,745.76172 V 598.93945 L 194.75977,567.14648 193.83398,443.62695 h 158.55079 l 0.35546,83.96485 295.4336,-73.97266 -0.33789,-426.98633 H 806.38672 L 806.02539,414.0957 914.02148,387.05664 V 535.41211 L 805.88672,562.29102 805.5,975.83594 Z" /><glyph
         glyph-name=""
         unicode="ザ"
         id="glyph110"
         d="m 648.58594,975.83594 -0.29492,-374.3711 -294.92774,73.31055 1.15039,271.50195 H 197.59961 L 195.85938,713.92578 67.785156,745.76172 V 598.93945 L 194.75977,567.14648 193.83398,443.62695 h 158.55079 l 0.35546,83.96485 295.4336,-73.97266 -0.33789,-426.98633 H 806.38672 L 806.02539,414.0957 914.02148,387.05664 V 535.41211 L 805.88672,562.29102 805.5,975.83594 Z M 819.45898,806.91406 c -0.13603,0 -0.24414,-0.11005 -0.24414,-0.24609 V 670.61523 c 0,-0.13603 0.10811,-0.24609 0.24414,-0.24609 h 63.51563 c 0.13604,0 0.24609,0.11006 0.24609,0.24609 v 136.05274 c 0,0.13604 -0.11005,0.24609 -0.24609,0.24609 z m 91.29688,-0.082 c -0.13604,0 -0.24609,-0.11005 -0.24609,-0.24609 V 670.53125 c 0,-0.13604 0.11005,-0.24609 0.24609,-0.24609 h 63.51367 c 0.13604,0 0.24609,0.11005 0.24609,0.24609 v 136.05469 c 0,0.13604 -0.11005,0.24609 -0.24609,0.24609 z" /><glyph
         glyph-name=""
         unicode="シ"
         id="glyph111"
         d="M 757.44308,873.50736 251.05763,144.3847 377.151,51.53676 882.39081,781.61863 Z m -286.67207,-9.0562 H 47.373943 V 707.83574 H 470.77101 Z m 0,-226.60438 H 47.373943 V 481.23117 H 470.77101 Z" /><glyph
         glyph-name=""
         unicode="ジ"
         id="glyph112"
         d="m 827.38477,977.58594 c -0.13604,0 -0.2461,-0.1081 -0.2461,-0.24414 V 841.28711 c 0,-0.13604 0.11006,-0.24609 0.2461,-0.24609 h 63.51367 c 0.13604,0 0.24609,0.11005 0.24609,0.24609 V 977.3418 c 0,0.13604 -0.11005,0.24414 -0.24609,0.24414 z m 91.29687,-0.082 c -0.13604,0 -0.24609,-0.11006 -0.24609,-0.2461 V 841.20508 c 0,-0.13604 0.11005,-0.2461 0.24609,-0.2461 h 63.51367 c 0.13604,0 0.2461,0.11006 0.2461,0.2461 v 136.05273 c 0,0.13604 -0.11006,0.2461 -0.2461,0.2461 z M 757.44336,873.50781 251.05859,144.38477 377.15039,51.53711 882.39062,781.61914 Z M 47.373047,864.45117 V 707.83594 H 470.77148 v 156.61523 z m 0,-226.60351 V 481.23047 H 470.77148 v 156.61719 z" /><glyph
         glyph-name=""
         unicode="ス"
         id="glyph113"
         d="M 657.62483,105.95494 450.85202,316.94774 755.72541,631.45747 421.81175,962.43913 332.6289,865.80869 546.61848,639.95799 340.5063,430.19071 313.29986,461.90509 208.34816,360.17877 241.51382,331.55117 29.981483,125.38292 150.48028,35.94587 352.32523,227.62744 560.89462,2.09629 Z" /><glyph
         glyph-name=""
         unicode="ズ"
         id="glyph114"
         d="M 421.8125,962.43945 332.62891,865.80859 546.61914,639.95703 340.50586,430.19141 313.30078,461.9043 208.34766,360.17969 241.51367,331.55078 29.982422,125.38281 150.48047,35.94531 352.32617,227.62695 560.89453,2.0957 657.625,105.95508 450.85156,316.94727 755.72461,631.45703 Z M 791.79492,814.48438 c -0.13604,-10e-6 -0.24414,-0.11006 -0.24414,-0.2461 V 678.18359 c 0,-0.13603 0.1081,-0.24414 0.24414,-0.24414 h 63.51563 c 0.13603,0 0.24414,0.10811 0.24414,0.24414 v 136.05469 c 0,0.13604 -0.10811,0.2461 -0.24414,0.2461 z m 91.29688,-0.084 c -0.13604,0 -0.2461,-0.11006 -0.2461,-0.24609 V 678.10156 c 0,-0.13604 0.11006,-0.24609 0.2461,-0.24609 h 63.51367 c 0.13604,0 0.24609,0.11005 0.24609,0.24609 V 814.1543 c 0,0.13603 -0.11005,0.24609 -0.24609,0.24609 z" /><glyph
         glyph-name=""
         unicode="セ"
         id="glyph115"
         d="M 101.36965,973.71614 102.43641,921.50599 41.377668,934.30708 42.078372,796.8994 107.7702,779.83126 101.36965,18.72199 868.11514,162.45336 867.49209,309.63696 254.54207,206.09113 256.67559,753.16231 719.39042,658.11605 640.00121,512.30351 775.20114,471.61507 897.60644,761.2429 254.54207,893.77028 v 79.94586 z" /><glyph
         glyph-name=""
         unicode="ゼ"
         id="glyph116"
         d="m 101.36914,973.7168 1.06641,-52.21094 -61.058597,12.80078 0.701172,-137.4082 65.691405,-17.06641 -6.40039,-761.10937 766.74609,143.73046 -0.62304,147.1836 -612.94922,-103.54492 2.13281,547.07031 462.71484,-95.04688 -79.38867,-145.8125 135.19922,-40.6875 122.4043,289.62696 -643.0625,132.52734 V 973.7168 Z M 812.2793,935.91406 c -0.13604,0 -0.2461,-0.11005 -0.2461,-0.24609 V 799.61523 c 0,-0.13603 0.11006,-0.24609 0.2461,-0.24609 h 63.51367 c 0.13604,0 0.24609,0.11006 0.24609,0.24609 v 136.05274 c 0,0.13604 -0.11005,0.24609 -0.24609,0.24609 z m 91.29492,-0.082 c -0.13604,0 -0.24414,-0.11005 -0.24414,-0.24609 V 799.53125 c 0,-0.13604 0.1081,-0.24414 0.24414,-0.24414 h 63.51562 c 0.13604,0 0.24414,0.1081 0.24414,0.24414 v 136.05469 c 0,0.13604 -0.1081,0.24609 -0.24414,0.24609 z" /><glyph
         glyph-name=""
         unicode="ソ"
         id="glyph117"
         d="M 797.82941,916.12551 C 0,1000 0,1000 797.82941,916.12551 Z m -145.32476,0 L 108.25322,30.87575 h 155.2592 L 813.72891,916.12551 Z M 215.33615,904.05652 H 81.245905 l 108.543465,-480.44897 135.091,1.50862 z" /><glyph
         glyph-name=""
         unicode="ゾ"
         id="glyph118"
         d="m 797.82941,916.12551 c -0.13604,-2e-5 -0.24414,0.13604 -0.24414,0 V 762.66652 c 0,-0.13603 0.1081,-0.24414 0.24414,-0.24414 h 63.51563 c 0.13603,0 0.24414,0.10811 0.24414,0.24414 v 153.45899 c 0,0.13604 -0.10811,0 -0.24414,0 z m 91.29688,0 c -0.13604,0 -0.2461,0.13603 -0.2461,0 V 762.58448 c 0,-0.13604 0.11006,-0.24609 0.2461,-0.24609 h 63.51367 c 0.13604,0 0.24609,0.11005 0.24609,0.24609 v 153.54103 c 0,0.13603 -0.11005,0 -0.24609,0 z m -236.62164,0 L 108.25322,30.87575 h 155.2592 L 800.52845,916.12551 Z M 215.33615,904.05652 H 81.245905 l 108.543465,-480.44897 135.091,1.50862 z" /><glyph
         glyph-name=""
         unicode="タ"
         id="glyph119"
         d="M 711.67132,898.40118 624.64942,995.14343 29.610394,388.72564 122.42782,306.415 432.57723,610.67448 607.44629,440.11122 297.79742,122.44375 372.35461,49.18484 977.80453,644.04289 899.39318,713.925 C 798.51134,683.10116 705.8339,784.26196 711.67132,898.40118 Z M 603.09743,790.2511 C 589.18851,695.31371 651.3347,603.42951 779.05875,609.04469 L 693.1959,516.25129 509.79864,699.61175 Z" /><glyph
         glyph-name=""
         unicode="ダ"
         id="glyph122"
         d="M 624.65039,995.14258 29.611328,388.72656 122.42773,306.41406 432.57812,610.67383 607.44727,440.11133 297.79688,122.44336 372.35547,49.18555 977.80469,644.04297 899.39258,713.92578 C 798.51074,683.10194 705.83446,784.26117 711.67188,898.40039 Z m 227.04102,-96.03906 c -0.13604,0 -0.24414,-0.10811 -0.24414,-0.24414 V 762.80469 c 0,-0.13604 0.1081,-0.2461 0.24414,-0.2461 h 63.51562 c 0.13604,0 0.24414,0.11006 0.24414,0.2461 v 136.05469 c 0,0.13603 -0.1081,0.24414 -0.24414,0.24414 z m 91.29687,-0.082 c -0.13604,0 -0.24609,-0.11005 -0.24609,-0.24609 V 762.72266 c 0,-0.13604 0.11005,-0.2461 0.24609,-0.2461 h 63.51372 c 0.136,0 0.246,0.11006 0.246,0.2461 v 136.05273 c 0,0.13604 -0.11,0.24609 -0.246,0.24609 z M 603.09766,790.25195 C 589.18874,695.31456 651.33454,603.42974 779.05859,609.04492 L 693.19531,516.25195 509.79883,699.61133 Z" /><glyph
         glyph-name=""
         unicode="チ"
         id="glyph123"
         d="M 29.515962,634.03992 V 428.86244 L 578.97646,739.17565 V 428.86244 H 29.515962 v 0 -167.75052 H 578.97646 L 338.90016,12.91184 h 240.0763 l 208.5766,248.20008 h 184.12707 v 167.75052 0 H 787.55306 v 347.5094 l 38.78144,-6.01636 3.0172,215.00487 -41.79864,7.7023 z" /><glyph
         glyph-name=""
         unicode="ヂ"
         id="glyph124"
         d="M 787.55273,993.0625 29.515625,634.03906 V 428.86328 L 578.97656,739.17578 V 428.86328 H 29.515625 V 261.11133 H 578.97656 L 338.90039,12.91211 H 578.97656 L 787.55273,261.11133 H 971.67969 V 428.86328 H 787.55273 v 347.50781 l 38.78125,-6.01562 3.01758,215.00586 z m 49.57032,-60.40625 c -0.13604,0 -0.2461,-0.11006 -0.2461,-0.24609 V 796.35547 c 0,-0.13604 0.11006,-0.24414 0.2461,-0.24414 h 63.51562 c 0.13604,0 0.24414,0.1081 0.24414,0.24414 v 136.05469 c 0,0.13603 -0.1081,0.24609 -0.24414,0.24609 z m 91.29687,-0.084 c -0.13604,0 -0.24609,-0.10811 -0.24609,-0.24415 V 796.27344 c 0,-0.13604 0.11005,-0.2461 0.24609,-0.2461 h 63.51367 c 0.13604,0 0.2461,0.11006 0.2461,0.2461 v 136.05468 c 0,0.13604 -0.11006,0.24415 -0.2461,0.24415 z" /><glyph
         glyph-name=""
         unicode="ッ"
         id="glyph125"
         d="m 381.50342,580.63647 -87.43524,-322.50067 0.21215,-0.20855 144.63864,-21.56234 22.42526,90.68317 -27.07915,2.09143 59.1849,227.4143 z m 199.28455,-9.66889 -87.43523,-322.50066 0.21214,-0.20856 144.63865,-21.56234 22.42526,90.682 -27.07914,2.09261 59.18636,227.41312 z M 876.79932,398.2085 795.98913,342.19827 846.22867,300.64187 535.35701,67.76276 612.86867,3.16765 l 0.34179,-0.0153 388.17264,298.05157 0.019,0.26629 z" /><glyph
         glyph-name=""
         unicode="ツ"
         id="glyph126"
         d="M 142.17067,986.00454 20.978111,437.1228 l 0.294057,-0.35494 200.481252,-36.69814 31.08329,154.3387 -37.53397,3.55952 82.03523,387.04899 z M 418.39573,969.54852 297.20318,420.6668 l 0.29405,-0.35496 200.48127,-36.69814 31.08328,154.33671 -37.53395,3.56153 82.03725,387.04698 z M 828.69222,675.52028 716.68254,580.19337 786.31874,509.46623 355.42462,113.11638 462.86226,3.17839 l 0.47375,-0.026 538.03979,507.27047 0.026,0.45321 z" /><glyph
         glyph-name=""
         unicode="ヅ"
         id="glyph127"
         d="M 179.56641,960.40234 63.648438,425.81836 l 0.28125,-0.3457 191.755862,-35.74219 29.73047,150.31836 -35.9004,3.46679 78.46485,376.9668 z M 443.76953,944.375 327.85156,409.79102 l 0.28125,-0.34571 191.75586,-35.74219 29.73047,150.31641 -35.90039,3.46875 78.4668,376.96484 z m 345.07031,-47.16016 c -0.13603,0 -0.24609,-0.1081 -0.24609,-0.24414 V 760.91602 c 0,-0.13604 0.11006,-0.2461 0.24609,-0.2461 h 63.51368 c 0.13603,0 0.24609,0.11006 0.24609,0.2461 V 896.9707 c 0,0.13604 -0.11006,0.24414 -0.24609,0.24414 z m 91.29493,-0.082 c -0.13604,0 -0.24415,-0.11005 -0.24415,-0.24609 V 760.83203 c 0,-0.13604 0.10811,-0.24414 0.24415,-0.24414 h 63.51562 c 0.13604,0 0.24414,0.1081 0.24414,0.24414 v 136.05469 c 0,0.13604 -0.1081,0.24609 -0.24414,0.24609 z M 836.20898,658.00586 729.07422,565.16211 795.67969,496.27734 383.53906,110.25195 486.30078,3.17773 l 0.45313,-0.02539 514.62309,494.05664 0.025,0.44141 z" /><glyph
         glyph-name=""
         unicode="テ"
         id="glyph128"
         d="M 469.42969,1005.7969 122.50781,721.41211 214.2207,618.08398 561.14062,902.46875 Z M 734.71484,940.04883 217.76367,485.08398 322.30664,390.40625 384.94727,455.36523 386.45703,13.29102 H 511.0625 l -1.50781,536.23632 319.03515,285.17774 z" /><glyph
         glyph-name=""
         unicode="デ"
         id="glyph129"
         d="M 464.49414,981.6582 122.50781,705.91992 212.91602,605.73242 554.90039,881.47266 Z m 341.46875,-39.2207 c -0.1319,0 -0.23828,-0.10638 -0.23828,-0.23828 V 829.91797 l -79.71875,87.99219 -509.59766,-441.13477 103.05664,-91.79883 61.74805,62.98438 1.48828,-428.63477 h 122.83399 l -1.48633,519.9336 307.98437,270.7832 h 56.54883 c 0.1319,0 0.23828,0.10638 0.23828,0.23828 v 131.91797 c 0,0.1319 -0.10638,0.23828 -0.23828,0.23828 z m 89.99805,-0.0801 c -0.1319,0 -0.23828,-0.10638 -0.23828,-0.23828 V 810.20117 c 0,-0.1319 0.10638,-0.23828 0.23828,-0.23828 h 62.61914 c 0.1319,0 0.23633,0.10638 0.23633,0.23828 v 131.91797 c 0,0.1319 -0.10443,0.23828 -0.23633,0.23828 z" /><glyph
         glyph-name=""
         unicode="ト"
         id="glyph130"
         d="m 376.67578,983.70697 v -42.54742 l -45.08093,42.54742 1.06676,-171.34063 44.01417,-44.69477 -4.26703,-745.83251 h 168.16903 l 4.26703,585.16057 349.25613,-352.92339 0.23712,174.57685 -349.49325,336.16698 v 218.8869 0 z" /><glyph
         glyph-name=""
         unicode="ド"
         id="glyph131"
         d="M 331.5957,983.70703 332.66211,812.36719 376.67578,767.67188 372.4082,21.83984 H 540.57812 L 544.8457,607 894.10156,254.07617 894.33789,428.65234 544.8457,764.82031 V 983.70703 H 376.67578 v -42.54687 z m 461.23242,-21.81641 c -0.13603,0 -0.24609,-0.1081 -0.24609,-0.24414 V 825.5918 c 0,-0.13604 0.11006,-0.2461 0.24609,-0.2461 h 63.51368 c 0.13603,0 0.24609,0.11006 0.24609,0.2461 v 136.05468 c 0,0.13604 -0.11006,0.24414 -0.24609,0.24414 z m 91.29688,-0.082 c -0.13604,0 -0.24609,-0.11005 -0.24609,-0.24609 V 825.50781 c 0,-0.13604 0.11005,-0.24414 0.24609,-0.24414 h 63.51367 c 0.13604,0 0.2461,0.1081 0.2461,0.24414 V 961.5625 c 0,0.13604 -0.11006,0.24609 -0.2461,0.24609 z" /><glyph
         glyph-name=""
         unicode="ナ"
         id="glyph132"
         d="M 979.19964,700.2743 V 575.80746 L 742.04927,576.6912 297.43941,125.35212 61.649098,126.14887 499.99981,571.54043 H 61.649098 V 700.2743 l 573.641092,3.20027 119.37089,119.23597 H 979.19964 L 867.06023,702.04176 Z" /><glyph
         glyph-name=""
         unicode="ニ"
         id="glyph7"
         d="M 282.98283,969.08203 V 796.40989 L 945.51562,542.77466 V 761.65843 H 754.97496 Z M 29.9668,526.88156 V 352.22336 L 945.51562,25.19141 V 251.40886 H 754.97496 Z" /><glyph
         glyph-name=""
         unicode="ヌ"
         id="glyph8"
         d="M 988.31441,820.87667 58.602547,825.29609 178.16235,706.84351 647.58037,704.6338 510.61386,580.79227 419.46547,673.75128 H 203.8988 L 405.8781,475.53377 15.217175,95.75954 H 242.4379 L 526.08182,352.61947 802.00753,95.75954 H 991.72827 L 622.03972,462.27552 Z" /><glyph
         glyph-name=""
         unicode="ネ"
         id="glyph9"
         d="M 400.02306,935.68453 V 725.02842 H 63.830388 V 497.63073 H 400.02306 L 28.475049,76.58789 H 282.21226 l 117.8108,138.74006 V 76.58789 c -0.009,-0.13576 -17.79824,-0.74238 0,0 h 207.48917 c 0.13592,0.006 0,-0.13604 0,0 V 224.16678 L 754.08576,76.58789 H 1009.4062 L 638.44816,457.85597 785.02168,596.86532 607.51223,725.02842 v 210.65611 z" /><glyph
         glyph-name=""
         unicode="ノ"
         id="glyph956"
         d="M 774.08125,888.24563 H 988.59942 L 277.97901,86.21854 18.910072,81.91723 Z" /><glyph
         glyph-name=""
         unicode="ハ"
         id="glyph958"
         d="M 263.67383,983.55078 15.560547,23.3457 H 182.15039 l 281.08203,960.20508 z m 215.0625,-7.45312 323.74414,-950.97657 h 191.875 L 708.58398,976.09766 Z" /><glyph
         glyph-name=""
         unicode="バ"
         id="glyph960"
         d="m 841.19356,972.79297 c -0.12502,0 -0.22569,-0.0975 -0.22569,-0.2186 V 851.46715 c 0,-0.12109 0.10067,-0.21859 0.22569,-0.21859 h 71.01933 c 0.12501,0 0.22569,0.0975 0.22569,0.21859 v 121.10722 c 0,0.1211 -0.10068,0.2186 -0.22569,0.2186 z m 84.08572,-0.80025 c -0.12502,0 -0.22569,-0.0975 -0.22569,-0.21859 V 850.6688 c 0,-0.12109 0.10067,-0.21859 0.22569,-0.21859 h 71.01736 c 0.12502,0 0.22569,0.0975 0.22569,0.21859 v 121.10533 c 0,0.12109 -0.10067,0.21859 -0.22569,0.21859 z M 280.58287,970.58421 31.277344,36.09143 H 198.6677 L 481.1004,970.58421 Z M 496.6788,963.33066 821.97863,37.81928 H 1014.7757 L 727.63094,963.33066 Z" /><glyph
         glyph-name=""
         unicode="パ"
         id="glyph962"
         d="M 259.58789,963.25391 10.283203,28.76172 H 177.67383 L 460.10547,963.25391 Z M 475.68359,956 800.98438,30.48828 H 993.78125 L 706.63672,956 Z m 378.88868,-6.68945 a 70,70 0 0 1 -70,-70 70,70 0 0 1 70,-70 70,70 0 0 1 70,70 70,70 0 0 1 -70,70 z m 0,-35 a 35,35 0 0 0 35,-35 35,35 0 0 0 -35,-35 35,35 0 0 0 -35,35 35,35 0 0 0 35,35 z" /><glyph
         glyph-name=""
         unicode="ヒ"
         id="glyph964"
         d="M 63.622726,948.78563 H 177.70314 V 661.3689 L 740.21623,595.30984 887.82539,661.3689 V 543.77232 L 740.21623,477.95434 177.70314,542.37531 v -347.567 L 740.21623,254.50673 873.34224,199.72689 887.82539,77.76518 740.21623,154.90559 177.70314,77.76518 H 56.009567 Z" /><glyph
         glyph-name=""
         unicode="ビ"
         id="glyph966"
         d="M 63.622726,948.78563 H 177.70314 V 661.3689 L 740.21623,595.30984 887.82539,661.3689 V 543.77232 L 740.21623,477.95434 177.70314,542.37531 v -347.567 L 740.21623,254.50673 873.34224,199.72689 887.82539,77.76518 740.21623,154.90559 177.70314,77.76518 H 56.009567 Z M 778.31275,887.08442 c -0.125,0 -0.2257,-0.097 -0.2257,-0.2186 v -121.1072 c 0,-0.1211 0.1007,-0.2186 0.2257,-0.2186 h 71.0193 c 0.125,0 0.2257,0.098 0.2257,0.2186 v 121.1072 c 0,0.1211 -0.1007,0.2186 -0.2257,0.2186 z m 84.0857,-0.8003 c -0.125,0 -0.2257,-0.098 -0.2257,-0.2185 v -121.1054 c 0,-0.1211 0.1007,-0.2186 0.2257,-0.2186 h 71.0174 c 0.125,0 0.2256,0.097 0.2256,0.2186 v 121.1054 c 0,0.121 -0.1006,0.2185 -0.2256,0.2185 z" /><glyph
         glyph-name=""
         unicode="ピ"
         id="glyph968"
         d="M 63.622726,948.78563 H 177.70314 V 661.3689 L 740.21623,595.30984 887.82539,661.3689 V 543.77232 L 740.21623,477.95434 177.70314,542.37531 v -347.567 L 740.21623,254.50673 873.34224,199.72689 887.82539,77.76518 740.21623,154.90559 177.70314,77.76518 H 56.009567 Z M 856.64453,898.53068 a 70,70 0 0 1 -70,-70 70,70 0 0 1 70,-70 70,70 0 0 1 70,70 70,70 0 0 1 -70,70 z m 0,-35 a 35,35 0 0 0 35,-35 35,35 0 0 0 -35,-35 35,35 0 0 0 -35,35 35,35 0 0 0 35,35 z" /><glyph
         glyph-name=""
         unicode="フ"
         id="glyph970"
         d="M 312.05512,89.88206 H 150.84446 v 117.59658 l 115.67595,74.95759 444.07343,454.10845 H 236.92268 L 70.492717,826.82392 59.686085,999.0084 203.61873,887.6733 H 692.72361 L 893.09117,736.54468 Z" /><glyph
         glyph-name=""
         unicode="ブ"
         id="glyph972"
         d="M 312.05512,89.88206 H 150.84446 v 117.59658 l 115.67595,74.95759 444.07343,454.10845 H 236.92268 L 70.492717,826.82392 59.686085,999.0084 203.61873,887.6733 H 692.72361 L 893.09117,736.54468 Z m 495.22755,859.00226 c -0.125,0 -0.2257,-0.097 -0.2257,-0.2186 v -121.1072 c 0,-0.1211 0.1007,-0.2186 0.2257,-0.2186 h 71.0193 c 0.125,0 0.2257,0.098 0.2257,0.2186 v 121.1072 c 0,0.1211 -0.1007,0.2186 -0.2257,0.2186 z m 84.0857,-0.8003 c -0.125,0 -0.2257,-0.098 -0.2257,-0.2185 v -121.1054 c 0,-0.1211 0.1007,-0.2186 0.2257,-0.2186 h 71.0174 c 0.125,0 0.2256,0.097 0.2256,0.2186 v 121.1054 c 0,0.121 -0.1006,0.2185 -0.2256,0.2185 z" /><glyph
         glyph-name=""
         unicode="プ"
         id="glyph974"
         d="M 312.05512,89.88206 H 150.84446 v 117.59658 l 115.67595,74.95759 444.07343,454.10845 H 236.92268 L 70.492717,826.82392 59.686085,999.0084 203.61873,887.6733 H 692.72361 L 893.09117,736.54468 Z m 560.20099,861.97446 a 70,70 0 0 1 -70,-70 70,70 0 0 1 70,-70 70,70 0 0 1 70,70 70,70 0 0 1 -70,70 z m 0,-35 a 35,35 0 0 0 35,-35 35,35 0 0 0 -35,-35 35,35 0 0 0 -35,35 35,35 0 0 0 35,35 z" /><glyph
         glyph-name=""
         unicode="ヘ"
         id="glyph976"
         d="M 942.79289,212.78331 937.24296,94.99326 H 754.14785 V 212.78331 L 504.95968,783.65918 323.38362,346.17261 181.07178,212.78331 H 17.898184 L 171.03332,373.34612 385.40491,921.00917 H 601.797 Z" /><glyph
         glyph-name=""
         unicode="ベ"
         id="glyph978"
         d="M 942.79289,212.78331 937.24296,94.99326 H 754.14785 V 212.78331 L 504.95968,783.65918 323.38362,346.17261 181.07178,212.78331 H 17.898184 L 171.03332,373.34612 385.40491,921.00917 H 601.797 Z M 811.40971,909.8484 c -0.125,0 -0.2257,-0.097 -0.2257,-0.2186 V 788.5226 c 0,-0.1211 0.1007,-0.2186 0.2257,-0.2186 h 71.0193 c 0.125,0 0.2257,0.098 0.2257,0.2186 v 121.1072 c 0,0.1211 -0.1007,0.2186 -0.2257,0.2186 z m 84.0857,-0.8003 c -0.125,0 -0.2257,-0.098 -0.2257,-0.2185 V 787.7242 c 0,-0.1211 0.1007,-0.2186 0.2257,-0.2186 h 71.0174 c 0.125,0 0.2256,0.097 0.2256,0.2186 v 121.1054 c 0,0.121 -0.1006,0.2185 -0.2256,0.2185 z" /><glyph
         glyph-name=""
         unicode="ペ"
         id="glyph980"
         d="M 942.79289,212.78331 937.24296,94.99326 H 754.14785 V 212.78331 L 504.95968,783.65918 323.38362,346.17261 181.07178,212.78331 H 17.898184 L 171.03332,373.34612 385.40491,921.00917 H 601.797 Z M 879.63466,897.1505 a 70,70 0 0 1 -70,-70 70,70 0 0 1 70,-70 70,70 0 0 1 70,70 70,70 0 0 1 -70,70 z m 0,-35 a 35,35 0 0 0 35,-35 35,35 0 0 0 -35,-35 35,35 0 0 0 -35,35 35,35 0 0 0 35,35 z" /><glyph
         glyph-name=""
         unicode="ホ"
         id="glyph982"
         d="m 383.24023,890.94141 c -0.12442,0 -0.22461,-0.10019 -0.22461,-0.22461 V 610.86133 L 62.285156,841.76758 c -0.069,0.0497 -0.158922,0.0245 -0.201172,-0.0566 L 10.357422,742.26953 c -0.042,-0.0812 -0.02212,-0.18664 0.04687,-0.23633 L 383.01562,473.77734 V 81.77539 c 10e-6,-0.12443 0.10019,-0.22461 0.22461,-0.22461 h 152.34571 c 0.12442,0 0.22461,0.10018 0.22461,0.22461 v 393.29102 l 376.74023,271.22851 c 0.0691,0.0497 0.091,0.15513 0.0488,0.23633 l -51.72656,99.44141 c -0.0423,0.0811 -0.13218,0.10634 -0.20117,0.0566 L 535.81055,612.15039 V 890.7168 c 0,0.12442 -0.10019,0.22461 -0.22461,0.22461 z M 689.07227,534.36523 c -0.0688,0 -0.125,-0.0542 -0.125,-0.12304 V 86.74609 c 0,-0.06884 0.0562,-0.12304 0.125,-0.12304 h 152.54492 c 0.0688,0 0.125,0.05424 0.125,0.12304 v 447.4961 c 0,0.0688 -0.0562,0.12304 -0.125,0.12304 z m -607.742192,-4.75 c -0.0688,0 -0.123047,-0.0542 -0.123047,-0.12304 V 81.99609 c 0,-0.069 0.05421,-0.125 0.123047,-0.125 H 233.87695 c 0.0688,0 0.12305,0.0557 0.12305,0.125 v 447.4961 c 0,0.0688 -0.0542,0.12304 -0.12305,0.12304 z" /><glyph
         glyph-name=""
         unicode="ボ"
         id="glyph2309"
         d="m 794.25977,965.52539 c -0.125,0 -0.22657,-0.0972 -0.22657,-0.21875 V 844.19922 c 0,-0.1211 0.10157,-0.21875 0.22657,-0.21875 h 63.5664 L 535.81055,612.15039 V 890.7168 c 0,0.12442 -0.10019,0.22461 -0.22461,0.22461 H 383.24023 c -0.12442,0 -0.2246,-0.10019 -0.22461,-0.22461 V 610.86133 L 62.285156,841.76758 c -0.069,0.0497 -0.158922,0.0245 -0.201172,-0.0566 L 10.357422,742.26953 c -0.042,-0.0812 -0.02212,-0.18664 0.04687,-0.23633 L 383.01562,473.77734 V 81.77539 c 10e-6,-0.12443 0.10019,-0.22461 0.22461,-0.22461 h 152.34571 c 0.12442,0 0.22461,0.10018 0.22461,0.22461 v 393.29102 l 376.74023,271.22851 c 0.0691,0.0497 0.091,0.15513 0.0488,0.23633 l -50.68945,97.44922 h 3.36914 c 0.125,0 0.22461,0.0982 0.22461,0.21875 v 121.10742 c 0,0.1211 -0.0996,0.21875 -0.22461,0.21875 z m 84.08593,-0.80078 c -0.125,0 -0.22656,-0.0983 -0.22656,-0.21875 V 843.40039 c 0,-0.1211 0.10156,-0.21875 0.22656,-0.21875 h 71.01758 c 0.125,0 0.22461,0.0971 0.22461,0.21875 v 121.10547 c 0,0.121 -0.0996,0.21875 -0.22461,0.21875 z M 689.07227,534.36523 c -0.0688,0 -0.125,-0.0542 -0.125,-0.12304 V 86.74609 c 0,-0.06884 0.0562,-0.12304 0.125,-0.12304 h 152.54492 c 0.0688,0 0.125,0.05424 0.125,0.12304 v 447.4961 c 0,0.0688 -0.0562,0.12304 -0.125,0.12304 z m -607.742192,-4.75 c -0.0688,0 -0.123047,-0.0542 -0.123047,-0.12304 V 81.99609 c 0,-0.069 0.05421,-0.125 0.123047,-0.125 H 233.87695 c 0.0688,0 0.12305,0.0557 0.12305,0.125 v 447.4961 c 0,0.0688 -0.0542,0.12304 -0.12305,0.12304 z" /><glyph
         glyph-name=""
         unicode="ポ"
         id="glyph2311"
         d="m 872.02148,945.41992 a 70,70 0 0 1 -70,-70 70,70 0 0 1 17.95899,-46.70117 C 774.69638,803.62963 697.72311,728.7168 535.81055,612.15039 V 890.7168 c 0,0.12442 -0.10019,0.22461 -0.22461,0.22461 H 383.24023 c -0.12442,0 -0.2246,-0.10019 -0.22461,-0.22461 V 610.86133 L 62.285156,841.76758 c -0.069,0.0497 -0.158922,0.0245 -0.201172,-0.0566 L 10.357422,742.26953 c -0.042,-0.0812 -0.02211,-0.18664 0.04687,-0.23633 L 383.01562,473.77734 V 81.77539 c 10e-6,-0.12443 0.10019,-0.22461 0.22461,-0.22461 h 152.34571 c 0.12442,0 0.22461,0.10018 0.22461,0.22461 v 393.29102 l 376.74023,271.22851 c 0.0691,0.0497 0.091,0.15513 0.0488,0.23633 -10.60624,25.9181 -19.16676,45.52452 -27.36914,60.30859 a 70,70 0 0 1 56.79101,68.58008 70,70 0 0 1 -70,70 z m 0,-35 a 35,35 0 0 0 35,-35 35,35 0 0 0 -35,-35 35,35 0 0 0 -35,35 35,35 0 0 0 35,35 z M 689.07227,534.36523 c -0.0688,0 -0.125,-0.0542 -0.125,-0.12304 V 86.74609 c 0,-0.0688 0.0562,-0.12304 0.125,-0.12304 h 152.54492 c 0.0688,0 0.125,0.0542 0.125,0.12304 v 447.4961 c 0,0.0688 -0.0562,0.12304 -0.125,0.12304 z m -607.742192,-4.75 c -0.0688,0 -0.123047,-0.0542 -0.123047,-0.12304 V 81.99609 c 0,-0.069 0.05421,-0.125 0.123047,-0.125 H 233.87695 c 0.0688,0 0.12305,0.0557 0.12305,0.125 v 447.4961 c 0,0.0688 -0.0542,0.12304 -0.12305,0.12304 z" /><glyph
         glyph-name=""
         unicode="マ"
         id="glyph2313"
         d="M 484.91602,892.94268 83.899726,641.47561 86.008057,521.40401 484.91602,763.69853 711.7025,590.06043 484.91602,513.04688 447.59324,550.09686 300.42512,547.98853 800.00586,46.49805 957.40039,44.875 565.66016,434.62891 927.24897,571.62826 Z" /><glyph
         glyph-name=""
         unicode="ミ"
         id="glyph2315"
         d="M 57.556641,927.55859 836.96484,552.84375 V 468.44922 L 986.33398,632.15039 297.36133,927.55859 Z M 53.980469,839.79688 V 636.08789 L 645.64062,361.16797 656.36914,244.59766 819.08398,426.69922 286.63281,689.75781 Z M 57.556641,538.86523 V 343.13086 L 504.90039,53.98438 638.48633,190.78125 193.64648,411.70898 Z" /><glyph
         glyph-name=""
         unicode="ム"
         id="glyph1"
         d="M 604.10954,905.61691 40.597122,234.24956 h 0.108102 L 39.220696,81.97514 h 0.340492 929.931492 v 0 210.48636 0.31726 l -169.78159,2.98163 c -0.1882,0.003 0,-0.14048 0,-0.31726 V 234.24956 H 265.77646 l 590.58563,671.36735 z" /><glyph
         glyph-name=""
         unicode="メ"
         id="glyph2"
         d="M 898.96727,874.2591 600.95751,532.91731 492.76806,641.07747 H 393.30125 L 529.5454,451.12044 141.30906,6.43294 l 0.027,-2e-5 248.07257,8.43359 228.05859,313.66992 101.31446,-141.25976 234.23638,-6.32618 -256.44922,256.38088 317.67386,436.92774 z" /><glyph
         glyph-name=""
         unicode="モ"
         id="glyph3"
         d="M 884.5904,968.61161 42.87402,504.92582 V 354.68603 L 324.0467,515.54988 V 410.53403 L 42.87402,232.91124 V 112.77864 L 324.0467,273.18632 V 138.97979 C 336.80886,75.86671 434.70075,18.12833 492.45161,64.73593 L 884.5904,290.39332 v 165.31953 4.1e-4 L 492.45161,230.38172 V 354.96708 L 884.5904,577.51831 v 0.0721 130.82639 L 492.45161,488.81659 v 105.8905 L 884.5904,816.80174 Z" /><glyph
         glyph-name=""
         unicode="ャ"
         id="glyph17"
         d="m 605.03091,555.73712 c -0.13215,0 -0.23827,-0.0793 -0.23827,-0.17813 V 509.93507 H 375.90569 c -0.12152,0 -0.2197,-0.0734 -0.2197,-0.16425 v -83.30938 c 0,-0.0909 0.0982,-0.16425 0.2197,-0.16425 H 604.79264 V 10.27662 c 0,-0.0988 0.10611,-0.17813 0.23827,-0.17813 h 112.89473 c 0.13214,0 0.23827,0.0793 0.23827,0.17813 v 231.76207 l 251.68621,184.2585 h 7.9061 c 0.12153,0 0.2197,0.0734 0.2197,0.16425 v 83.30938 c 0,0.0909 -0.0982,0.16425 -0.2197,0.16425 H 718.16391 v 45.62392 c 0,0.0988 -0.10611,0.17813 -0.23827,0.17813 z m 113.133,-129.43993 h 79.39053 l -79.39053,-58.0238 z" /><glyph
         glyph-name=""
         unicode="ヤ"
         id="glyph18"
         d="m 423.69336,949.3125 c -0.16681,0 -0.30078,-0.13397 -0.30078,-0.30078 V 871.97461 H 134.45117 c -0.15341,0 -0.27734,-0.12393 -0.27734,-0.27734 V 731.02734 c 0,-0.15341 0.12393,-0.27734 0.27734,-0.27734 H 423.39258 V 28.28906 c 0,-0.16681 0.13397,-0.30078 0.30078,-0.30078 h 142.51562 c 0.16681,0 0.30079,0.13397 0.30079,0.30078 V 419.625 L 884.23242,730.75 h 9.98047 c 0.15342,0 0.27734,0.12393 0.27734,0.27734 v 140.66993 c 0,0.15341 -0.12392,0.27734 -0.27734,0.27734 H 566.50977 v 77.03711 c 0,0.16681 -0.13398,0.30078 -0.30079,0.30078 z M 566.50977,730.75 h 100.2207 l -100.2207,-97.97461 z" /><glyph
         glyph-name=""
         unicode="ュ"
         id="glyph19"
         d="m 472.55655,580.1798 v 0 -94.95858 l 101.83571,-0.95864 276.29052,-110.47223 -147.09923,-189.64673 -231.027,73.42776 -103.01657,2.13649 V 158.70126 l 103.01657,-0.64448 429.6504,-141.82295 v 94.44002 L 794.78659,146.17339 980.19148,381.45943 902.20695,454.5806 578.3472,579.22116 Z" /><glyph
         glyph-name=""
         unicode="ユ"
         id="glyph20"
         d="m 214.77882,893.25112 v 0 -147.67428 L 368.32685,744.08602 784.91808,572.28577 563.12166,277.35777 214.77882,391.54851 59.450289,394.87106 V 237.79123 L 214.77882,236.78896 862.6063,16.23383 V 163.10167 L 700.63773,218.30858 980.19148,584.2123 862.6063,697.92626 374.29011,891.7603 Z" /><glyph
         glyph-name=""
         unicode="ョ"
         id="glyph21"
         d="m 402.74696,13.92588 v 124.14476 l 85.91165,-19.96571 337.88849,84.52364 -28.17097,41.20376 -307.56586,30.35058 -88.06331,48.22319 85.91165,48.22322 307.56587,-17.92116 22.71537,67.67211 -330.28124,36.6979 -85.91165,-11.09481 V 549.74088 L 965.81079,474.8182 886.62615,298.27025 965.81079,148.19064 Z" /><glyph
         glyph-name=""
         unicode="ヨ"
         id="glyph22"
         d="m 74.767484,13.92588 v 213.9519 l 135.954386,-34.40903 534.70542,145.66859 -44.5803,71.01083 -486.72014,52.30639 -139.359366,83.10818 135.954386,83.1082 486.72015,-30.88543 35.94686,116.62655 -522.66701,63.2454 L 74.767484,758.5366 V 937.35299 L 965.81079,808.23075 840.50183,503.96685 965.81079,245.31865 Z" /><glyph
         glyph-name=""
         unicode="ラ"
         id="glyph23"
         d="m 102.6231,648.82997 c -0.13639,-0.0686 -0.0797,0.11743 0,0 l 60.98784,-96.3057 c 0.0797,-0.11745 -0.1364,-0.0686 0,0 L 785.84718,844.72372 724.85937,941.0294 Z M 827.28684,779.2865 144.4496,458.6291 c -0.1364,-0.0686 -0.0797,0.11747 0,0 l 64.69482,-102.1594 c 0.0797,-0.11746 -0.13641,-0.0686 0,0 L 766.63209,605.86123 V 22.22805 c 0,-0.13604 -0.15792,-0.003 0,0 l 125.34957,2.10833 c 0.15774,0.003 -0.003,-0.1359 0,0 v 652.79071 z" /><glyph
         glyph-name=""
         unicode="リ"
         id="glyph24"
         d="m 725.51172,793.38281 c -0.13604,0 -0.2461,-0.1081 -0.2461,-0.24414 V 152.69531 c 0,-0.13604 0.11006,-0.24414 0.2461,-0.24414 h 147.0918 c 0.13603,0 0.24609,0.1081 0.24609,0.24414 v 640.44336 c 0,0.13604 -0.11006,0.24414 -0.24609,0.24414 z m -451.1836,-37.94922 c -0.13603,0 -0.24414,-0.11005 -0.24414,-0.24609 V 494.24609 c 0,-0.13603 0.10811,-0.24609 0.24414,-0.24609 h 147.0918 c 0.13604,0 0.2461,0.11006 0.2461,0.24609 V 755.1875 c 0,0.13604 -0.11006,0.24609 -0.2461,0.24609 z" /><glyph
         glyph-name=""
         unicode="ル"
         id="glyph25"
         d="m 267.44727,925.86723 c -0.136,0 -0.24568,-0.1266 -0.2461,-0.28592 l -2.10833,-800.66106 c -4.2e-4,-0.15932 0.1238,-0.21612 0.2461,-0.28593 l 147.09179,-83.95289 2.35443,884.89988 -0.2461,0.28592 z m 285.18164,-2.0701 -0.2461,-0.28593 -1.86223,-884.89988 340.79583,321.52202 c 0.10326,0.10376 0.11394,0.28621 0.0254,0.40715 l -95.75978,130.76037 c -0.0886,0.12094 -0.24244,0.13347 -0.3457,0.0297 L 699.9668,395.6341 v 527.8771 c 0,0.15932 -0.11007,0.28593 -0.2461,0.28593 z" /><glyph
         glyph-name=""
         unicode="レ"
         id="glyph26"
         d="m 275.33717,938.70528 -0.2461,-0.28592 -1.86223,-884.89988 507.44503,390.09955 5.96327,208.68994 v 0.0297 L 428.63832,356.87289 422.67506,938.41936 c -0.002,0.15931 -0.11007,0.28592 -0.2461,0.28592 z" /><glyph
         glyph-name=""
         unicode="ロ"
         id="glyph27"
         d="m 496.10455,942.70636 c -0.0854,0.0831 -0.22069,0.0813 -0.3038,-0.004 L 19.58238,453.56604 c -0.0831,-0.0853 -0.0813,-0.22069 0.0041,-0.3038 L 490.59458,-5.3068 c 0.0854,-0.083 0.22069,-0.081 0.3038,0 l 476.21837,489.14036 c 0.0831,0.0854 0.0813,0.22069 -0.004,0.3038 z M 492.62898,739.51006 743.21953,495.5375 c 0.0479,-0.0467 0.049,-0.1233 0.002,-0.17123 L 475.71677,220.60488 c -0.0467,-0.0479 -0.12331,-0.049 -0.17124,-0.002 L 224.95498,464.57514 c -0.0479,0.0467 -0.0489,0.12331 -0.002,0.17124 l 267.50477,274.76139 c 0.0467,0.0479 0.12331,0.0489 0.17123,0.002 z" /><glyph
         glyph-name=""
         unicode="ヮ"
         id="glyph28"
         d="m 839.03925,556.32582 c -0.14694,0 -0.26579,-0.0846 -0.26579,-0.18909 V 555.727 L 371.37615,455.00766 h -8.55394 c -0.14692,0 -0.26579,-0.0846 -0.26579,-0.18909 v -1.71093 l -1.97447,-0.42624 1.97447,-4.6375 V 159.6408 c 0,-0.10452 0.11887,-0.18909 0.26579,-0.18909 h 115.40118 c 0.14692,0 0.26579,0.0846 0.26579,0.18909 v 241.84349 l 360.28428,77.63688 V 31.84536 c 0,-0.10453 0.11885,-0.1876 0.26579,-0.1876 h 118.62023 c 0.14692,0 0.2658,0.0831 0.2658,0.1876 v 524.29137 c 0,0.10453 -0.11888,0.18909 -0.2658,0.18909 z" /><glyph
         glyph-name=""
         unicode="ワ"
         id="glyph29"
         d="m 784.07034,956.90889 c -0.21487,0 -0.38868,-0.14912 -0.38868,-0.33347 v -0.72254 L 100.17554,778.23451 H 87.666552 c -0.214859,0 -0.388686,-0.14914 -0.388686,-0.33347 v -3.01722 l -2.887405,-0.75167 2.887405,-8.17822 V 257.35561 c 0,-0.18433 0.173827,-0.33347 0.388686,-0.33347 H 256.42535 c 0.21485,0 0.38869,0.14914 0.38869,0.33347 v 426.49053 l 526.86762,136.9125 V 31.98859 c 0,-0.18434 0.17381,-0.33083 0.38868,-0.33083 h 173.46625 c 0.21485,0 0.38869,0.14649 0.38869,0.33083 v 924.58683 c 0,0.18435 -0.17384,0.33347 -0.38869,0.33347 z" /><glyph
         glyph-name=""
         unicode="ヰ"
         id="glyph30" /><glyph
         glyph-name=""
         unicode="ヱ"
         id="glyph31" /><glyph
         glyph-name=""
         unicode="ヲ"
         id="glyph32"
         d="m 632.35095,976.14732 c -0.13603,0 -0.24414,-0.11006 -0.24414,-0.24609 L 86.204469,572.15709 c -0.11108,-0.0785 -0.15773,-0.21805 -0.0898,-0.33594 L 161.74749,440.46763 c 6.04834,-10.50425 0.22289,-0.16835 0.33398,-0.0898 L 632.10681,772.6981 V 623.57505 l -0.23633,0.41016 c -0.0679,0.1179 -0.22288,0.16834 -0.33398,0.0898 L 74.452519,230.20001 c -0.1111,-0.0785 -0.15775,-0.21608 -0.0899,-0.33398 L 149.99543,98.51251 c 6.04835,-10.50428 0.22484,-0.17029 0.33594,-0.0918 L 632.10681,439.05162 V 37.17857 c 0,-0.136 0.10811,-0.2461 0.24414,-0.2461 h 151.57227 c 0.13604,0 0.24609,0.1101 0.24609,0.2461 v 938.72266 c 0,0.13603 -0.11005,0.24609 -0.24609,0.24609 z" /><glyph
         glyph-name=""
         unicode="ン"
         id="glyph33"
         d="m 195.73243,856.48111 c -0.10379,0.0866 -0.25323,0.0698 -0.33595,-0.0371 L 95.703128,727.57486 c -0.08272,-0.10693 -0.06668,-0.26103 0.03711,-0.34766 L 554.83398,344.04752 c 0.10379,-0.0866 0.25322,-0.0698 0.33594,0.0371 l 99.69336,128.86914 c 0.0827,0.10692 0.0667,0.26298 -0.0371,0.34961 z M 911.44531,474.30533 454.99609,194.33463 164.98633,286.08853 c -0.12969,0.041 -0.26756,-0.0304 -0.30859,-0.16015 L 115.2207,129.60806 c -0.041,-0.1297 0.0305,-0.26755 0.16016,-0.30859 L 488.79688,11.15689 c 0.1297,-0.041 0.2656,0.0305 0.30664,0.16016 l 4.32617,13.67187 503.99803,309.13478 c 0.11594,0.0711 0.15121,0.22192 0.0801,0.33789 L 911.7832,474.2233 c -0.0711,0.11596 -0.22193,0.15317 -0.33789,0.082 z" /><glyph
         glyph-name=""
         unicode="ヴ"
         id="glyph34"
         d="m 634.89648,995.125 -0.3164,-0.14063 -57.8457,-145.39843 -38.18555,-87.8086 -113.68164,18.41407 -222.83594,40.61914 -1.86719,-4.22266 -0.84375,0.13672 -0.77148,-0.20899 L 125.5332,647.84766 2.7675781,370.2793 l 25.9628909,-9.54688 80.062501,-33.875 0.77344,0.20508 1.47461,3.4082 3.16015,-1.16211 112.95117,269.38477 39.31055,90.80469 548.73047,-101.72071 -188.57617,-369.63672 -56.88672,-109.54687 0.40039,-0.70508 30.61133,-12.95117 73.40039,-34.81836 135.91406,263.875 185.26172,352.12695 -338.52734,67.23633 87.13281,224.98438 z M 923.69531,843.98438 c -0.13604,0 -0.24609,-0.11006 -0.24609,-0.2461 v -90.16797 c 0,-0.13604 0.11005,-0.24609 0.24609,-0.24609 h 52.2168 c 0.13604,0 0.24609,0.11005 0.24609,0.24609 v 90.16797 c 0,0.13604 -0.11005,0.2461 -0.24609,0.2461 z m -64.02539,-1.2754 c -0.13604,0 -0.24414,-0.11005 -0.24414,-0.24609 v -90.16797 c 0,-0.13604 0.1081,-0.24414 0.24414,-0.24414 h 52.21875 c 0.13604,0 0.24414,0.1081 0.24414,0.24414 v 90.16797 c 0,0.13604 -0.1081,0.24609 -0.24414,0.24609 z" /><glyph
         glyph-name=""
         unicode="ヵ"
         id="glyph35"
         d="m 734.05463,547.66589 -137.77412,-111.25231 -125.5796,110.5419 -0.23782,0.009 -75.10911,-55.64577 -0.0107,-0.19323 129.39731,-104.23009 -128.65457,-104.95216 -0.0134,-0.19323 67.93168,-61.43506 -4.08894,2.33279 140.75243,106.53323 96.14293,-77.23827 -240.04227,-199.09658 0.0281,-0.19214 66.8265,-53.71127 300.84452,253.83035 -159.47244,137.64545 134.34316,104.00424 -65.04717,53.23337 z" /><glyph
         glyph-name=""
         unicode="ヶ"
         id="glyph36"
         d="M 915.19539,259.27621 668.58308,504.3541 717.46581,557.48902 661.37559,606.13604 446.69871,389.92482 c 0.0525,-0.0722 34.68104,-53.97782 48.80568,-53.94049 L 617.90408,457.34556 736.20497,337.59781 407.54184,50.84779 468.36069,-3.2299 794.8264,278.42661 l 70.36562,-67.79 z" /><glyph
         glyph-name=""
         unicode="ヷ"
         id="glyph37" /><glyph
         glyph-name=""
         unicode="ヸ"
         id="glyph38" /><glyph
         glyph-name=""
         unicode="ヹ"
         id="glyph39" /><glyph
         glyph-name=""
         unicode="ヺ"
         id="glyph40" /><glyph
         glyph-name=""
         unicode="・"
         id="glyph41" /><glyph
         glyph-name=""
         unicode="ー"
         id="glyph42"
         d="M 722.74555,50.19782 844.14815,57.87405 760.42628,176.04618 327.7067,409.14245 206.93633,401.12566 290.02596,283.29409 Z" /><glyph
         glyph-name=""
         unicode="A"
         id="glyph4"
         d="m 30.185547,854.10156 -0.984375,-0.86523 -14.382813,-96.00781 0.658203,-1.3379 304.769528,-70.67382 -98.30468,-326.83789 -67.11329,14.10351 -0.98632,-0.86914 -14.38282,-96.0039 0.65821,-1.33594 518.2207,-108.90039 0.98438,0.86718 14.38476,96.00391 -0.66015,1.3418 -375.31836,78.86914 97.83593,325.29492 73.2168,-16.97852 0.98828,0.86914 14.37891,96.00391 -0.6543,1.3418 z M 537.98047,556.16797 589.04883,432.17969 884.66016,197.95117 l 88.63281,4.66406 -55.24219,127.67188 -291.68164,225.39062 z" /><glyph
         glyph-name=""
         unicode="B"
         id="glyph5"
         d="M 83.082031,971.10937 78.115234,272.44531 h 79.410156 l 367.0625,61.87696 96.32227,-61.87696 -9.45118,97.82813 -86.87109,43.93945 -367.0625,-47.88477 v 278.79102 l 367.0625,-51.67383 96.32227,52.79492 v 94.32618 l -96.32227,-52.98829 -367.0625,52.98829 V 971.10937 Z M 549.44727,921.61719 c -0.0816,0 -0.14649,-0.0783 -0.14649,-0.17578 v -97.14258 c 0,-0.0971 0.0649,-0.17578 0.14649,-0.17578 h 46.34375 c 0.0816,0 0.14648,0.079 0.14648,0.17578 v 97.14258 c 0,0.0971 -0.0649,0.17578 -0.14648,0.17578 z m 54.87109,-0.64258 c -0.0816,0 -0.14844,-0.0791 -0.14844,-0.17578 V 823.6582 c 0,-0.0971 0.0669,-0.17578 0.14844,-0.17578 h 46.3418 c 0.0816,0 0.14648,0.0782 0.14648,0.17578 v 97.14063 c 0,0.0971 -0.0649,0.17578 -0.14648,0.17578 z m 31.66602,-408.93555 42.77148,-108.6914 247.59375,-205.33204 74.23629,4.08985 -46.26949,111.91992 -244.30274,197.58399 z" /><glyph
         glyph-name=""
         unicode="C"
         id="glyph6"
         d="M 770.01758,925.13477 263.63086,196.01172 389.72461,103.16406 894.96484,833.24609 Z M 59.947266,916.07812 V 759.46289 H 483.34375 v 156.61523 z m 0,-226.60546 V 532.85742 H 483.34375 V 689.47266 Z M 696.97852,361.83984 625.83984,353.92188 674.7832,237.54102 929.66992,7.31641 l 71.51168,7.58007 -49.31637,116.71875 z" /><glyph
         glyph-name=""
         unicode="D"
         id="glyph10"
         d="M 392.22656,983.62305 50.240234,707.88477 140.64844,607.69727 482.63281,883.4375 Z m 341.46875,-39.22071 c -0.1319,0 -0.23828,-0.10638 -0.23828,-0.23828 V 831.88281 L 653.73828,919.875 144.14062,478.74023 l 103.05665,-91.79882 61.74804,62.98437 1.48828,-428.63476 h 122.83399 l -1.48633,519.93359 307.98437,270.7832 h 56.54883 c 0.1319,0 0.23828,0.10638 0.23828,0.23828 v 131.91797 c 0,0.1319 -0.10638,0.23828 -0.23828,0.23828 z m 89.99805,-0.0801 c -0.1319,0 -0.23828,-0.10639 -0.23828,-0.23829 V 812.16602 c 0,-0.1319 0.10638,-0.23829 0.23828,-0.23829 h 62.61914 c 0.1319,0 0.23633,0.10639 0.23633,0.23829 v 131.91796 c 0,0.1319 -0.10443,0.23829 -0.23633,0.23829 z M 643.55273,449.64844 572.41406,441.73047 621.35742,325.34961 876.24414,95.125 l 71.51172,7.58008 -49.31641,116.71875 z" /><glyph
         glyph-name=""
         unicode="E"
         id="glyph11"
         d="m 762.54297,943.16602 -715.316408,-473.0625 -0.09961,-1.11329 108.552737,-85.06445 1.49219,-0.0703 L 549.75,643.48047 414.30469,81.92773 414.87891,81.05664 543.125,53.62891 l 0.89648,0.56054 168.01758,696.61328 160.44922,106.11329 0.0937,1.11328 -108.55273,85.0664 z M 710.46094,368.26367 643.50977,361.03711 689.57227,254.8125 929.45312,44.67578 996.75391,51.5957 950.3418,158.12891 Z" /><glyph
         glyph-name=""
         unicode="F"
         id="glyph12"
         d="M 22.472656,968.75 21.488281,967.88477 7.1054688,871.87695 7.7636719,870.53906 312.5332,799.86523 214.22852,473.02734 l -67.11329,14.10352 -0.98632,-0.86914 -14.38282,-96.00391 0.65821,-1.33593 518.2207,-108.9004 0.98438,0.86719 14.38476,96.00391 -0.66016,1.3418 -375.31836,78.86914 97.83594,325.29492 73.2168,-16.97852 0.98828,0.86914 14.37891,96.00391 -0.6543,1.3418 z M 467.40039,593.06836 473.9668,492.86719 575.08789,440.33008 H 862.88477 L 593.07031,176.06641 522.78711,132.44531 V 64.01172 h 97.94922 L 973.76758,440.33008 852.02734,528.27734 H 554.85156 Z" /><glyph
         glyph-name=""
         unicode="G"
         id="glyph13"
         d="m 724.58203,985.97461 c -0.11618,0 -0.20898,-0.10157 -0.20898,-0.22852 V 858.7832 c 0,-0.12695 0.0928,-0.23047 0.20898,-0.23047 h 54.2168 c 0.11618,0 0.21094,0.10352 0.21094,0.23047 v 126.96289 c 0,0.12695 -0.0948,0.22852 -0.21094,0.22852 z m 77.93359,-0.0762 c -0.11608,0 -0.21093,-0.10352 -0.21093,-0.23047 V 858.70508 c 0,-0.12695 0.0948,-0.22852 0.21093,-0.22852 h 54.2168 c 0.11609,0 0.20899,0.10157 0.20899,0.22852 v 126.96289 c 0,0.12695 -0.0929,0.23047 -0.20899,0.23047 z M 664.87891,888.84961 232.61914,208.44141 340.25391,121.79688 771.53711,803.10156 Z M 58.75,880.39844 V 734.24805 h 361.41992 v 146.15039 z m 0,-211.46289 v -146.1543 h 361.41992 v 146.1543 z m 591.13477,-240.79297 -77.00782,-8.22461 52.98047,-120.89063 275.91602,-239.14453 77.41211,7.875 -53.38477,121.23828 z" /><glyph
         glyph-name=""
         unicode="H"
         id="glyph14"
         d="m 60.732422,871.26172 -0.876953,-0.99805 -12.796875,-110.79297 0.585937,-1.54492 271.177739,-81.55664 -87.47071,-377.17187 -59.71484,16.27539 -0.87891,-1.00391 -12.79687,-110.78906 0.58594,-1.54102 461.10156,-125.67187 0.875,1.00195 12.80078,110.78906 -0.58789,1.54688 -333.95117,91.01562 87.05273,375.39258 65.14649,-19.59375 0.8789,1.00195 12.79492,110.78907 -0.58203,1.54882 z M 881.51367,850.71289 498.09961,572.76953 V 413.92969 L 776.01758,654.16211 V 413.92969 H 498.09961 V 284.06445 H 776.01758 L 654.58594,91.91602 h 121.43164 l 105.49609,192.14843 h 93.13281 v 129.86524 h -93.13281 v 269.02929 l 19.61719,-4.6582 1.52539,166.44922 z" /><glyph
         glyph-name=""
         unicode="I"
         id="glyph15"
         d="m 41.685547,935.53906 c -0.5781,0 -1.037744,-0.44158 -1.027344,-0.98047 l 1.636719,-84.63671 1.064453,-0.96876 483.650395,-14.94921 c 31.7943,0.13546 -157.09944,-160.24104 -146.67774,-119.89649 l 16.85742,65.25586 c -29.2996,7.06753 -60.17021,12.77878 -90.10351,18.88867 l -0.62305,-0.37304 -114.64844,-452.25391 0.40039,-0.58398 89.70313,-18.3086 0.62695,0.37305 65.51172,259.27148 c 132.266,19.5514 300.92069,216.52185 300.21289,333.75977 0,0.5388 -0.48645,0.97117 -1.06445,0.96875 v 0.002 z M 916.3125,578.23438 328.86133,287.01367 l -0.082,-0.68555 89.14843,-52.36718 1.22657,-0.043 322.40429,159.82812 -111.23437,-345.69726 0.4707,-0.53711 105.32227,-16.88477 0.73633,0.34571 137.98242,428.84179 131.76956,65.32617 0.078,0.68555 -89.1504,52.36524 z" /><glyph
         glyph-name=""
         unicode="J"
         id="glyph16"
         d="m 636.22266,963.65234 c -0.10495,0 -0.18946,-0.0915 -0.18946,-0.20507 V 849.9043 c 0,-0.11354 0.0846,-0.20703 0.18946,-0.20703 h 49.00586 c 0.10504,0 0.1914,0.0934 0.1914,0.20703 v 113.54297 c 0,0.11353 -0.0866,0.20507 -0.1914,0.20507 z m 70.44336,-0.0684 c -0.10495,0 -0.18946,-0.0915 -0.18946,-0.20507 V 849.83398 c 0,-0.11353 0.0847,-0.20507 0.18946,-0.20507 h 49.00781 c 0.10494,0 0.18945,0.0915 0.18945,0.20507 v 113.54493 c 0,0.11353 -0.0845,0.20507 -0.18945,0.20507 z M 582.25586,876.79297 191.5332,268.29883 288.82617,190.81055 c 205.6871,315.50362 285.07662,443.57464 389.83789,609.29687 z M 34.373047,869.23438 V 738.53125 H 361.0625 v 130.70313 z m 0,-189.11329 V 549.41406 H 361.0625 v 130.70703 z m 531.855473,-59.42187 -0.58594,-0.64844 -8.55274,-72.08789 0.39063,-1.00391 181.24805,-53.06445 -58.4629,-245.4043 -39.9121,10.58985 -0.58594,-0.6543 -8.55469,-72.08398 0.39258,-1.00196 308.18555,-81.76757 0.58593,0.65039 8.55469,72.08398 -0.39258,1.00781 -223.20312,59.21875 58.18359,244.2461 43.54297,-12.74805 0.58789,0.65234 8.55078,72.08399 -0.38867,1.00781 z" /><glyph
         glyph-name=""
         unicode="K"
         id="glyph43"
         d="M 433.35547,982.30078 2.8808594,551.75391 107.41211,438.11523 393.95117,724.2207 569.89453,543.86523 173.74805,122.30859 283.92578,18.79492 689.05469,433.55664 821.10742,295.05273 936.10938,408.06445 510.0293,836.42383 l 34.22851,34.89062 z m -259.60742,-859.99219 -5.22266,4.90821 -5.36719,-16.04688 z m 471.13867,195.11719 -71.97656,-6.33984 49.51953,-93.16797 257.88867,-184.30664 72.35156,6.06836 -49.89648,93.4375 z" /><glyph
         glyph-name=""
         unicode="L"
         id="glyph44"
         d="m 33.880859,979.84766 -0.925781,-0.92383 -13.535156,-102.82031 0.61914,-1.43164 286.792968,-75.68946 -92.50586,-350.02148 -63.15625,15.10156 -0.92578,-0.92969 -13.53516,-102.81445 0.61914,-1.43164 487.6504,-116.62695 0.92773,0.93164 13.53516,102.81445 -0.6211,1.43555 -353.17969,84.46289 92.06641,348.375 68.89649,-18.1836 0.92968,0.92969 13.53321,102.81445 -0.61719,1.4375 z M 647.12695,652.67773 c -0.0736,0 -0.13259,-0.0841 -0.13281,-0.18945 l -1.14258,-529.4707 c -2.2e-4,-0.10534 0.0686,-0.14329 0.13477,-0.18946 l 79.62695,-55.51757 1.27344,585.17773 -0.13281,0.18945 z M 801.50781,651.30859 801.375,651.11914 800.36719,65.94141 984.85352,278.5625 c 0.0559,0.0686 0.0619,0.18955 0.0137,0.26953 l -51.83985,86.4707 c -0.0482,0.08 -0.13158,0.0882 -0.1875,0.0195 l -51.57226,-63.28321 v 349.08008 c 0,0.10535 -0.0592,0.18945 -0.13281,0.18945 z" /><glyph
         glyph-name=""
         unicode="M"
         id="glyph45"
         d="m 36.064453,937.78711 -0.785156,-0.87109 -11.458985,-96.6211 0.523438,-1.3457 242.82422,-71.12695 -78.32422,-328.92383 -53.47266,14.19336 -0.7832,-0.875 -11.46094,-96.61719 0.52539,-1.34375 412.88868,-109.59766 0.78515,0.875 11.46094,96.61719 -0.52539,1.34961 -299.03516,79.37109 77.95313,327.375 58.33203,-17.08789 0.78906,0.875 11.45703,96.61719 L 397.23438,832 Z M 799.88086,759.5957 553.2168,180.49219 h 0.0488 L 552.61523,49.14453 h 0.14844 407.05664 v 181.56055 0.27344 l -74.31836,2.57226 c -0.0822,0 0,-0.12089 0,-0.27344 V 180.49219 H 651.78516 L 910.29883,759.5957 Z" /><glyph
         glyph-name=""
         unicode="N"
         id="glyph46"
         d="m 29.595703,898.01172 -0.935547,-0.78711 -13.679687,-87.44531 0.626953,-1.21875 289.839848,-64.3711 -93.49024,-297.68359 -63.82617,12.84375 -0.93555,-0.79102 -13.67969,-87.4414 0.62696,-1.2168 492.83398,-99.1875 0.9375,0.79102 13.67774,87.4414 -0.62696,1.22071 L 284.03125,432 l 93.04492,296.2832 69.62891,-15.46484 0.93945,0.79102 13.67578,87.4414 -0.62304,1.2207 z M 542.61328,593.50977 600.14648,509.125 826.0332,507.55078 760.12305,419.32812 716.26172,485.55078 H 612.5293 L 709.72461,344.34375 521.73438,73.79688 H 631.07617 L 767.56641,256.78125 900.34375,73.79688 h 91.29492 l -177.89648,261.10156 176.2539,255.46289 z"
         horiz-adv-x="0.00" /><glyph
         glyph-name=""
         unicode="O"
         id="glyph47"
         d="M 383.01562,929.02734 387.96484,700.54883 64.375,730.05078 41.134766,656.75781 42.125,655.74414 337.88477,622.24023 66.453125,364.5625 h 0.259766 131.519529 l 185.92383,177.97852 0.82813,-177.97852 h 0.64062 111.76562 0.63477 l -1.13867,243.37109 335.8418,-34.2207 0.23046,157.19141 -104.21484,-0.11719 -0.88867,-64.20313 -228.3125,22.07813 -3.76563,155.45898 141.99805,-14.54882 -0.90234,75.81445 z M 631.8125,348.58203 563.18555,341.65234 610.40039,239.7793 856.2832,38.25195 l 68.98438,6.63672 -47.57227,102.16602 z" /><glyph
         glyph-name=""
         unicode="P"
         id="glyph48"
         d="M 43.714844,980.41797 37.685547,299.43164 h 96.367183 l 445.44336,60.31055 116.88868,-60.31055 -11.46875,95.35352 -105.41993,42.82812 -445.44336,-46.67383 v 271.73633 l 445.44336,-50.36523 116.88868,51.45703 v 91.93945 L 579.49609,704.06055 134.05273,755.70703 V 980.41797 Z M 671.69336,941.12695 a 55.431634,54.727744 0 0 1 -55.43164,-54.72851 55.431634,54.727744 0 0 1 55.43164,-54.72656 55.431634,54.727744 0 0 1 55.43164,54.72656 55.431634,54.727744 0 0 1 -55.43164,54.72851 z m 0,-27.36328 a 27.715817,27.363872 0 0 0 27.71484,-27.36523 27.715817,27.363872 0 0 0 -27.71484,-27.36328 27.715817,27.363872 0 0 0 -27.7168,27.36328 27.715817,27.363872 0 0 0 27.7168,27.36523 z M 587.38086,344.68164 515.40625,337.35547 564.92383,229.67969 822.8125,16.67188 895.16602,23.6875 845.26953,131.67578 Z" /><glyph
         glyph-name=""
         unicode="Q"
         id="glyph49"
         d="m 266.98633,975.5 -0.0606,-61.49609 -64.68555,51.66015 -63.0039,-51.01953 127.58984,-102.24414 -0.0859,-89.58398 L 117.00195,842.39453 54,791.375 266.64062,620.97656 266.48047,455.8125 H 373.4375 l -0.0918,79.6543 63.76953,-51.10157 63.66211,51.55079 L 373.22852,637.77539 373.125,727.2168 522.35352,607.63281 586.01367,659.18555 373.00781,829.28906 372.83789,975.5 Z M 550.16016,575.20508 v -51.99024 l 68.69726,-0.52539 186.38281,-60.48242 -99.23242,-103.83203 -155.84765,40.20117 -69.49414,1.16992 v -55.30078 l 69.49414,-0.35351 289.83789,-77.64649 v 51.70508 l -72.46485,19.43555 125.07227,128.82031 -52.60742,40.0332 -218.47266,68.24024 z m 78.40234,-276.46485 -80.76172,-6.33398 55.5625,-93.10742 289.36914,-184.18555 81.1836,6.06445 -55.98633,93.37696 z" /><glyph
         glyph-name=""
         unicode="R"
         id="glyph50"
         d="M 523.85352,966.21094 41.111328,963.9043 c -0.364982,0 -0.655002,-0.31407 -0.648437,-0.69727 l 1.033203,-60.18359 0.671875,-0.68946 405.800781,1.93946 c 20.07333,0.0963 -99.18716,-113.94417 -92.60742,-85.25586 l 10.64258,46.40234 c -18.4983,5.02557 -37.98637,9.08701 -56.88477,13.43164 l -0.39453,-0.26562 -72.38281,-321.58985 0.2539,-0.41406 56.63282,-13.01953 0.39453,0.26562 41.36328,184.36329 c 83.50613,13.90264 189.98592,153.96425 189.53906,237.33007 0,0.38314 -0.30695,0.69116 -0.67187,0.68946 z m -122.88672,-345.0918 -61.08985,-6.67773 42.0293,-98.13477 218.88672,-194.13086 61.41015,6.39258 -42.35156,98.41797 z M 680.32812,491.75781 c -0.0634,0 -0.11504,-0.0636 -0.11523,-0.14258 L 679.22852,95.26758 c -1.9e-4,-0.0789 0.0579,-0.10802 0.11523,-0.14258 l 68.62109,-41.55859 1.09766,438.04882 -0.11523,0.14258 z m 133.04102,-1.02539 -0.11523,-0.14062 -0.86914,-438.04883 158.98632,159.16015 c 0.048,0.0512 0.0533,0.14319 0.0117,0.20313 l -44.67383,64.72852 c -0.0417,0.0597 -0.11199,0.0669 -0.16015,0.0156 L 882.10352,229.27734 V 490.5918 c 0,0.0789 -0.0516,0.14062 -0.11524,0.14062 z" /><glyph
         glyph-name=""
         unicode="S"
         id="glyph51"
         d="m 60.482422,955.46484 -0.933594,-0.81445 -13.632812,-90.5 0.625,-1.25977 288.835934,-66.61914 -93.16601,-308.07812 -63.60547,13.29297 -0.93164,-0.81836 -13.63281,-90.49414 0.625,-1.25977 491.12695,-102.65039 0.93359,0.82031 13.63086,90.49219 -0.625,1.26563 -355.69726,74.34179 92.72265,306.625 69.38867,-16.0039 0.93555,0.81836 13.62891,90.49414 -0.6211,1.26562 z M 699.77539,556.62109 641.00391,500.90234 782.02148,370.67188 646.19531,249.71484 628.26562,268.00195 559.10547,209.34375 580.96094,192.83594 441.5625,73.95508 520.9707,22.38281 653.98438,132.91211 791.42773,2.86523 855.17188,62.75195 718.91211,184.41602 919.82031,365.76953 Z" /><glyph
         glyph-name=""
         unicode="T"
         id="glyph52"
         d="M 326.01367,917.64453 18.648438,669.98242 99.904297,579.99805 407.26758,827.66016 Z m 235.03711,-57.25781 -458.00781,-396.21484 92.62305,-82.45118 55.49804,56.57032 1.33789,-384.98829 h 110.39844 l -1.33594,466.99024 282.65821,248.35351 z m 342.1836,-299.57227 -500.11133,-263.84961 -0.0703,-0.62109 75.89649,-47.44531 1.04297,-0.0391 274.46875,144.80664 -94.69532,-313.20508 0.4004,-0.48828 89.66406,-15.29688 0.625,0.3125 117.46875,388.53711 112.17773,59.18555 0.0664,0.62109 -75.89453,47.44531 z" /><glyph
         glyph-name=""
         unicode="U"
         id="glyph53"
         d="M 146.93359,974.6582 V 879.69922 L 248.76953,878.74023 525.05859,768.26953 377.96094,578.62109 146.93359,652.05078 43.916016,654.18555 V 553.17969 L 146.93359,552.53516 576.58398,410.71289 v 94.43945 l -107.41992,35.5 185.4043,235.28516 -77.98438,73.12109 -323.85937,124.64063 z m 423.92188,-612.30078 -91.24024,-7.42383 62.77344,-109.12695 326.91406,-215.87695 91.71875,7.10937 -63.25,109.44141 z" /><glyph
         glyph-name=""
         unicode="V"
         id="glyph54"
         d="M 43.740234,990.68555 54.017578,828.54492 212.30078,743.5332 H 662.78906 L 240.45117,315.91406 130.43555,245.32812 V 134.5918 H 283.75586 L 836.35352,743.5332 645.79297,885.8457 H 180.62695 Z M 754.74414,943.48437 c -0.11888,0 -0.21484,-0.0906 -0.21484,-0.20507 V 829.23633 c 0,-0.11404 0.0959,-0.20508 0.21484,-0.20508 h 67.54492 c 0.11888,0 0.21289,0.0915 0.21289,0.20508 V 943.2793 c 0,0.11403 -0.0939,0.20507 -0.21289,0.20507 z m 79.9707,-0.75195 c -0.11887,0 -0.21484,-0.0936 -0.21484,-0.20703 V 828.48438 c 0,-0.11404 0.0959,-0.20508 0.21484,-0.20508 h 67.54102 c 0.11888,0 0.21484,0.0905 0.21484,0.20508 v 114.04101 c 0,0.11394 -0.0959,0.20703 -0.21484,0.20703 z m 53.63477,-529.12109 -407.45313,-211.3125 -0.0586,-0.49805 61.83399,-37.99805 0.85156,-0.0293 223.61718,115.97265 -77.15234,-250.83984 0.32813,-0.39063 73.05078,-12.25195 0.50976,0.25195 95.70508,311.16993 91.39453,47.40039 0.0527,0.49804 -61.83399,37.99805 z" /><glyph
         glyph-name=""
         unicode="W"
         id="glyph55"
         d="M 271.46484,982.75 2.1699219,668.7207 44.173828,626.0957 184.53906,783.6543 263.67773,695.33008 123.54102,530.82812 l 33.74218,-37.93554 177.26953,199.28906 3.42188,-62.38281 75.32031,-46.75 H 627.66406 L 426.68945,347.89062 374.33984,309.07617 v -60.89844 h 72.95704 l 262.95898,334.8711 -90.67969,78.26172 H 398.22266 l -50.98633,45.1289 84.05469,94.4961 -35.48829,36.1875 c -45.65586,-15.96193 -87.59689,36.42302 -84.95507,95.52929 z m 102.75,-49.73438 c -0.0615,0 -0.10937,-0.0546 -0.10937,-0.125 v -70.45507 c 0,-0.0704 0.0478,-0.12891 0.10937,-0.12891 h 28.7461 c 0.0616,0 0.10937,0.0585 0.10937,0.12891 v 70.45507 c 0,0.0704 -0.0478,0.125 -0.10937,0.125 z m 41.31836,-0.041 c -0.0616,0 -0.11133,-0.0585 -0.11132,-0.12891 v -70.45312 c 0,-0.0704 0.0497,-0.12696 0.11132,-0.12696 h 28.74414 c 0.0615,0 0.11133,0.0565 0.11133,0.12696 v 70.45312 c 0,0.0705 -0.0498,0.12891 -0.11133,0.12891 z M 261.71094,876.64844 c -6.29476,-49.16273 21.82905,-96.74567 79.63281,-93.83789 l -38.85742,-48.05078 -83,94.95117 z M 671.42188,693.00781 c -0.0565,0 -0.10157,-0.0503 -0.10157,-0.11328 v -62.71484 c 0,-0.0627 0.045,-0.11328 0.10157,-0.11328 h 32.14062 c 0.0565,0 0.10156,0.0509 0.10156,0.11328 v 62.71484 c 0,0.0627 -0.045,0.11328 -0.10156,0.11328 z m 38.05468,-0.41406 c -0.0565,0 -0.10351,-0.0509 -0.10351,-0.11328 v -62.71485 c 0,-0.0627 0.047,-0.11328 0.10351,-0.11328 h 32.13867 c 0.0565,0 0.10352,0.0503 0.10352,0.11328 v 62.71485 c 0,0.0626 -0.0469,0.11328 -0.10352,0.11328 z M 680.67773,516.63672 c -0.0615,0 -0.11114,-0.066 -0.11132,-0.14844 l -0.95508,-414.61719 c -1.8e-4,-0.0824 0.056,-0.11229 0.11133,-0.14843 L 746.29102,58.25 l 1.0664,458.23828 -0.11133,0.14844 z m 129.0625,-1.07227 -0.11132,-0.14843 -0.8418,-458.23829 154.23242,166.49805 c 0.0467,0.0537 0.052,0.14829 0.0117,0.21094 l -43.33789,67.71289 c -0.0403,0.0627 -0.1095,0.0693 -0.15625,0.0156 l -43.11523,-49.55664 v 273.35743 c 0,0.0824 -0.0498,0.14843 -0.11133,0.14843 z" /><glyph
         glyph-name=""
         unicode="X"
         id="glyph56"
         d="m 31.697266,973.14258 -0.789063,-0.74414 -11.507812,-82.48828 0.527343,-1.14844 243.863286,-60.72461 -78.66016,-280.8125 -53.70117,12.11523 -0.78711,-0.74609 -11.50977,-82.48437 0.52735,-1.14844 414.65625,-93.56641 0.78906,0.74609 11.50781,82.48633 -0.52734,1.15235 -300.3125,67.76172 78.28515,279.49023 58.58203,-14.58789 0.79102,0.74609 11.50781,82.48633 -0.52539,1.15234 z M 616.19922,753.58008 438.04297,570.50391 494.04102,520.43359 622.56641,648.86523 736.09375,536.18555 439.39258,239.07422 493.32227,181.65625 838.27734,527.72266 Z M 842.74023,507.45508 798.63281,457.96094 904.46484,342.28125 802.52734,234.83789 789.07227,251.08203 737.16602,198.97852 753.56836,184.31641 648.95117,78.7168 708.54688,32.9082 808.37305,131.08594 911.52539,15.57031 959.36523,68.76562 857.10156,176.83594 1007.8848,337.92578 Z" /><glyph
         glyph-name=""
         unicode="Y"
         id="glyph57"
         d="m 505.66602,945.32812 c -0.14416,0 -0.26172,-0.0989 -0.26172,-0.2207 v -0.47656 L 46.669922,827.24805 h -8.394531 c -0.144231,0 -0.261719,-0.0989 -0.261719,-0.22071 v -1.99414 l -1.9375,-0.49804 1.9375,-5.4043 V 483.01367 c 0,-0.12181 0.117488,-0.2207 0.261719,-0.2207 H 151.53711 c 0.14417,0 0.25977,0.0989 0.25977,0.2207 V 764.86914 L 505.4043,855.34961 V 334.07422 c 0,-0.12181 0.11756,-0.21875 0.26172,-0.21875 h 116.42187 c 0.14416,0 0.25977,0.0969 0.25977,0.21875 v 611.0332 c 0,0.12183 -0.11561,0.2207 -0.25977,0.2207 z m 416.07617,-517.9121 -407.45313,-211.3125 -0.0586,-0.49805 61.83398,-37.99805 0.85157,-0.0312 223.61718,115.97266 -77.15234,-250.83985 0.32812,-0.39062 73.05079,-12.25195 0.50976,0.25195 95.70508,311.16992 91.39453,47.40039 0.0527,0.49805 -61.83399,37.99805 z" /><glyph
         glyph-name=""
         unicode="Z"
         id="glyph58"
         d="M 357.40039,980.68555 277.24414,888.94531 469.57422,674.52734 284.32422,475.38086 259.87305,505.48828 165.54297,408.91211 195.35352,381.73242 5.2324219,186.00195 113.5332,101.0918 294.94922,283.07031 482.4043,68.95508 569.34375,167.55664 383.5,367.86914 657.51367,666.45703 Z M 689.93359,840.2207 c -0.12224,-10e-6 -0.2207,-0.10522 -0.2207,-0.23437 V 710.81836 c 0,-0.12914 0.0985,-0.23047 0.2207,-0.23047 h 57.08594 c 0.12232,0 0.21875,0.10133 0.21875,0.23047 v 129.16797 c 0,0.12915 -0.0965,0.23437 -0.21875,0.23437 z m 82.05469,-0.0801 c -0.12224,0 -0.2207,-0.10523 -0.2207,-0.23437 V 710.74023 c 0,-0.12916 0.0985,-0.23242 0.2207,-0.23242 h 57.08594 c 0.12224,0 0.2207,0.10326 0.2207,0.23242 v 129.16602 c 0,0.12914 -0.0984,0.23437 -0.2207,0.23437 z m 167.4375,-394.71679 -407.45312,-211.3125 -0.0586,-0.49805 61.83399,-37.99805 0.85156,-0.0312 223.61719,115.97266 -77.15235,-250.83984 0.32813,-0.39063 73.05078,-12.25195 0.50976,0.25195 95.70508,311.16992 91.3945,47.40039 0.053,0.49805 -61.83402,37.99805 z" /><glyph
         glyph-name=""
         unicode="a"
         id="glyph59"
         d="M 37.745556,906.25 H 968.50444 c 0.13604,0 0.24556,-0.10952 0.24556,-0.24556 V 800.24556 C 968.75,800.10952 968.64048,800 968.50444,800 H 37.745556 C 37.609518,800 37.5,800.10952 37.5,800.24556 v 105.75888 c 0,0.13604 0.109518,0.24556 0.245556,0.24556 z M 35.86719,725.75 34.88281,724.88477 20.5,628.87696 l 0.6582,-1.3379 304.7695,-70.67382 -98.3046,-326.83789 -67.1133,14.10351 -0.9864,-0.86914 -14.3828,-96.0039 0.6582,-1.33594 518.2207,-108.90038 0.9844,0.8672 14.3848,96.0039 -0.6602,1.3418 -375.3183,78.86912 97.8359,325.29492 73.2168,-16.97852 0.9883,0.86914 14.3789,96.00391 -0.6543,1.3418 z M 543.6621,427.81641 594.7305,303.82813 890.3418,69.5996 978.9746,74.2637 923.7324,201.93555 632.0508,427.32617 Z" /><glyph
         glyph-name=""
         unicode="b"
         id="glyph60"
         d="m 88.216801,784.14286 -4.9668,-698.66407 h 79.410159 l 367.06254,61.87696 96.3222,-61.87696 -9.4511,97.82813 -86.8711,43.93945 L 162.66016,179.3616 V 458.15263 L 529.7227,406.4788 626.0449,459.27372 V 553.5999 L 529.7227,500.61161 162.66016,553.5999 V 784.14286 Z M 554.582,734.65067 c -0.082,0 -0.1464,-0.0782 -0.1464,-0.17578 v -97.14258 c 0,-0.0971 0.065,-0.17578 0.1464,-0.17578 h 46.3438 c 0.082,0 0.1465,0.079 0.1465,0.17578 v 97.14258 c 0,0.0971 -0.065,0.17578 -0.1465,0.17578 z m 54.8711,-0.64258 c -0.082,0 -0.1484,-0.0791 -0.1484,-0.17578 v -97.14063 c 0,-0.0971 0.067,-0.17578 0.1484,-0.17578 h 46.3418 c 0.082,0 0.1465,0.0782 0.1465,0.17578 v 97.14063 c 0,0.0971 -0.065,0.17578 -0.1465,0.17578 z m 31.6661,-408.93554 42.7714,-108.6914 247.5938,-205.33204 74.2363,4.08984 -46.2695,111.91993 -244.3028,197.58398 z M 72.4961,903.25 c -0.136,0 -0.2461,-0.11006 -0.2461,-0.24609 V 797.24609 C 72.25,797.11006 72.3601,797 72.4961,797 h 930.7578 c 0.136,0 0.2461,0.11006 0.2461,0.24609 v 105.75782 c 0,0.13603 -0.1101,0.24609 -0.2461,0.24609 z" /><glyph
         glyph-name=""
         unicode="c"
         id="glyph61"
         d="M 748.65922,784.75 302.31746,154.92805 413.4596,74.72556 858.79082,705.37587 Z M 122.78571,776.92681 V 641.64139 h 373.19211 v 135.28542 z m 0,-195.7435 V 445.89789 H 495.97782 V 581.18331 Z M 684.28079,298.17163 621.5774,291.33203 664.71728,190.80137 889.38073,-8.0684 952.41287,-1.5206 908.94423,99.30189 Z M 72.4961,903.25 c -0.136,0 -0.2461,-0.11006 -0.2461,-0.24609 V 797.24609 C 72.25,797.11006 72.3601,797 72.4961,797 h 930.7578 c 0.136,0 0.2461,0.11006 0.2461,0.24609 v 105.75782 c 0,0.13603 -0.1101,0.24609 -0.2461,0.24609 z" /><glyph
         glyph-name=""
         unicode="d"
         id="glyph62"
         d="M 494.55781,811.10714 198.5,585.25601 276.76645,503.19465 572.82256,729.04737 Z m 295.60973,-32.12481 c -0.11418,0 -0.20628,-0.0871 -0.20628,-0.19517 v -91.96709 l -69.01258,72.07245 -441.15905,-361.32374 89.21622,-75.19038 53.45532,51.58911 1.28841,-351.08523 h 106.33747 l -1.28672,425.86608 266.62228,221.79253 h 48.95437 c 0.11418,0 0.20628,0.0871 0.20628,0.19517 v 108.0511 c 0,0.10804 -0.0921,0.19517 -0.20628,0.19517 z m 77.91138,-0.0657 c -0.11419,0 -0.20628,-0.0871 -0.20628,-0.19516 V 670.67038 c 0,-0.10804 0.0921,-0.19518 0.20628,-0.19518 h 54.20943 c 0.11419,0 0.2046,0.0871 0.2046,0.19518 v 108.05119 c 0,0.10804 -0.0905,0.19517 -0.2046,0.19517 z m -155.94787,-405.17639 -61.5848,-6.48543 42.37031,-95.32499 220.6556,-188.57184 61.90772,6.20863 -42.69322,95.60175 z M 72.4961,903.25 c -0.136,0 -0.2461,-0.11006 -0.2461,-0.24609 V 797.24609 C 72.25,797.11006 72.3601,797 72.4961,797 h 930.7578 c 0.136,0 0.2461,0.11006 0.2461,0.24609 v 105.75782 c 0,0.13603 -0.1101,0.24609 -0.2461,0.24609 z" /><glyph
         glyph-name=""
         unicode="e"
         id="glyph64"
         d="m 796.78717,792.71429 -624.52163,-409.59945 -0.087,-0.96394 94.77419,-73.65275 1.30279,-0.0609 342.74836,224.79537 -118.2533,-486.21841 0.50133,-0.75423 111.96788,-23.7482 0.78269,0.48531 146.69118,603.16012 140.08348,91.87781 0.0818,0.96393 -94.77414,73.65443 z M 751.31588,294.93717 692.8628,288.68008 733.0786,196.70589 942.51152,14.7598 l 58.75838,5.99157 -40.52117,92.24138 z M 72.4961,903.25 c -0.136,0 -0.2461,-0.11006 -0.2461,-0.24609 V 797.24609 C 72.25,797.11006 72.3601,797 72.4961,797 h 930.7578 c 0.136,0 0.2461,0.11006 0.2461,0.24609 v 105.75782 c 0,0.13603 -0.1101,0.24609 -0.2461,0.24609 z" /><glyph
         glyph-name=""
         unicode="f"
         id="glyph65"
         d="m 133.62729,796.60714 -0.88436,-0.73715 -12.9215,-81.79577 0.59133,-1.13984 273.80449,-60.21197 -88.31678,-278.45602 -60.29448,12.01577 -0.88611,-0.74048 -12.9215,-81.79243 0.59133,-1.13817 465.56869,-92.77984 0.88439,0.73883 12.92328,81.79241 -0.59312,1.14317 -337.18546,67.19413 87.89568,277.14145 65.77786,-14.46518 0.88789,0.74048 12.91798,81.79243 -0.58782,1.14318 z m 399.7224,-320.06942 5.89925,-85.36838 90.84704,-44.76003 H 888.6523 L 646.25135,121.26463 583.10902,84.10073 V 25.79737 h 87.99751 L 988.26921,346.40931 878.89802,421.33772 H 611.91572 Z M 72.4961,903.25 c -0.136,0 -0.2461,-0.11006 -0.2461,-0.24609 V 797.24609 C 72.25,797.11006 72.3601,797 72.4961,797 h 930.7578 c 0.136,0 0.2461,0.11006 0.2461,0.24609 v 105.75782 c 0,0.13603 -0.1101,0.24609 -0.2461,0.24609 z" /><glyph
         glyph-name=""
         unicode="g"
         id="glyph66"
         d="m 775.03081,807 c -0.10097,0 -0.18162,-0.0888 -0.18162,-0.19988 V 695.75009 c 0,-0.11104 0.0806,-0.20159 0.18162,-0.20159 h 47.1168 c 0.10099,0 0.18337,0.0906 0.18337,0.20159 v 111.05003 c 0,0.11104 -0.0826,0.19988 -0.18337,0.19988 z m 67.72777,-0.0667 c -0.1009,0 -0.18328,-0.0905 -0.18328,-0.20158 V 695.68168 c 0,-0.11104 0.0826,-0.19988 0.18328,-0.19988 h 47.11688 c 0.1009,0 0.1816,0.0888 0.1816,0.19988 v 111.05011 c 0,0.11104 -0.081,0.20159 -0.1816,0.20159 z M 723.14611,722.04813 347.49295,126.91868 441.0324,51.13374 815.83687,647.04729 Z M 196.39286,714.65619 V 586.82351 h 314.09015 v 127.83268 z m 0,-184.95926 V 401.86084 h 314.09015 v 127.83609 z m 513.72267,-210.61326 -66.92325,-7.19378 46.0424,-105.73884 239.78338,-209.17145 67.2747,6.88802 -46.3938,106.04292 z M 72.4961,903.25 c -0.136,0 -0.2461,-0.11006 -0.2461,-0.24609 V 797.24609 C 72.25,797.11006 72.3601,797 72.4961,797 h 930.7578 c 0.136,0 0.2461,0.11006 0.2461,0.24609 v 105.75782 c 0,0.13603 -0.1101,0.24609 -0.2461,0.24609 z" /><glyph
         glyph-name=""
         unicode="h"
         id="glyph67"
         d="m 107.43305,799.07143 -0.84314,-0.93638 -12.304195,-103.94753 0.563341,-1.44946 260.736834,-76.51759 -84.10288,-353.868 -57.41574,15.26981 -0.84506,-0.94188 -12.30419,-103.94379 0.56344,-1.44589 443.34802,-117.90705 0.84131,0.94 12.30794,103.94389 -0.56526,1.45133 -321.09321,85.39211 83.70097,352.19859 62.63821,-18.38313 0.84506,0.94004 12.30227,103.94387 -0.5596,1.45312 z M 896.61236,779.79223 527.96059,519.02186 V 369.99611 L 795.17811,595.38552 V 369.99611 H 527.96059 V 248.15466 H 795.17811 L 678.42181,67.87833 h 116.7563 l 101.43425,180.27633 h 89.54695 v 121.84145 h -89.54695 v 252.40704 l 18.86189,-4.37039 1.46667,156.165 z M 72.4961,903.25 c -0.136,0 -0.2461,-0.11006 -0.2461,-0.24609 V 797.24609 C 72.25,797.11006 72.3601,797 72.4961,797 h 930.7578 c 0.136,0 0.2461,0.11006 0.2461,0.24609 v 105.75782 c 0,0.13603 -0.1101,0.24609 -0.2461,0.24609 z" /><glyph
         glyph-name=""
         unicode="i"
         id="glyph68"
         d="m 262.80681,787.10714 c -0.43383,0 -0.77877,-0.34572 -0.77097,-0.76764 l 1.22828,-66.26468 0.79882,-0.75848 362.95555,-11.70419 C 650.87853,707.71821 509.12318,582.15451 516.94415,613.7415 l 12.65065,51.09082 c -21.98789,5.53338 -45.15475,10.0049 -67.6182,14.78852 l -0.46756,-0.29206 -86.03796,-354.08351 0.30048,-0.45721 67.31773,-14.33437 0.47049,0.29207 49.16329,202.99162 c 99.25905,15.30739 225.82601,169.52162 225.29484,261.3108 0,0.42184 -0.36505,0.76035 -0.79882,0.75846 v 0.002 z m 656.36404,-279.74482 -440.8529,-228.00566 -0.0616,-0.53674 66.90147,-40.99988 0.92047,-0.0337 241.94838,125.13435 -83.47586,-270.65706 0.35324,-0.4205 79.03913,-13.21956 0.55257,0.27067 103.54891,335.7534 98.88652,51.14587 0.0585,0.53674 -66.90294,40.99836 z M 72.4961,903.25 c -0.136,0 -0.2461,-0.11006 -0.2461,-0.24609 V 797.24609 C 72.25,797.11006 72.3601,797 72.4961,797 h 930.7578 c 0.136,0 0.2461,0.11006 0.2461,0.24609 v 105.75782 c 0,0.13603 -0.1101,0.24609 -0.2461,0.24609 z" /><glyph
         glyph-name=""
         unicode="j"
         id="glyph69"
         d="m 665.97781,783.07143 c -0.0963,0 -0.17378,-0.0811 -0.17378,-0.18165 V 682.31251 c 0,-0.10058 0.0779,-0.18339 0.17378,-0.18339 h 44.93915 c 0.0964,0 0.17551,0.0827 0.17551,0.18339 v 100.57727 c 0,0.10056 -0.0798,0.18165 -0.17551,0.18165 z m 64.5977,-0.0606 c -0.0962,0 -0.17368,-0.0811 -0.17368,-0.18165 V 682.25017 c 0,-0.10056 0.0779,-0.18165 0.17368,-0.18165 h 44.94098 c 0.0963,0 0.17378,0.0811 0.17378,0.18165 v 100.57905 c 0,0.10057 -0.077,0.18166 -0.17378,0.18166 z M 616.48934,706.13067 258.19,167.12175 347.40933,98.48199 C 536.02789,377.9576 608.8294,491.40392 704.89729,638.202 Z M 114.07143,699.43525 V 583.65737 h 299.57981 v 115.77788 z m 0,-167.51811 v -115.7813 h 299.57981 v 115.7813 z m 487.72051,-52.6363 -0.53728,-0.57445 -7.84306,-63.85604 0.35828,-0.88926 166.20748,-47.00487 -53.61147,-217.38109 -36.60007,9.38053 -0.53728,-0.57958 -7.8448,-63.8525 0.36002,-0.88758 282.6113,-72.43041 0.53728,0.57613 7.8448,63.85258 -0.35993,0.89271 -204.68109,52.45652 53.35535,216.35514 39.92967,-11.29237 0.53911,0.57782 7.84123,63.85258 -0.35644,0.89272 z M 72.4961,903.25 c -0.136,0 -0.2461,-0.11006 -0.2461,-0.24609 V 797.24609 C 72.25,797.11006 72.3601,797 72.4961,797 h 930.7578 c 0.136,0 0.2461,0.11006 0.2461,0.24609 v 105.75782 c 0,0.13603 -0.1101,0.24609 -0.2461,0.24609 z" /><glyph
         glyph-name=""
         unicode="k"
         id="glyph70"
         d="M 460.5102,794.17857 82.642857,441.43225 174.39959,348.32827 425.92141,582.73399 580.36315,434.96907 232.62878,89.58842 329.34196,4.77981 684.96104,344.59343 800.87592,231.1174 901.82377,323.70771 527.81391,674.66184 557.85944,703.24766 Z M 232.62878,89.58842 l -4.58441,4.02129 -4.71128,-13.14716 z m 413.56195,159.85919 -63.18047,-5.19423 43.46786,-76.33235 226.37271,-151.00212 63.50966,4.97176 -43.79875,76.55322 z M 72.4961,903.25 c -0.136,0 -0.2461,-0.11006 -0.2461,-0.24609 V 797.24609 C 72.25,797.11006 72.3601,797 72.4961,797 h 930.7578 c 0.136,0 0.2461,0.11006 0.2461,0.24609 v 105.75782 c 0,0.13603 -0.1101,0.24609 -0.2461,0.24609 z" /><glyph
         glyph-name=""
         unicode="l"
         id="glyph71"
         d="m 102.28315,818.21429 -0.89153,-0.82004 -13.034477,-91.26831 0.596237,-1.27079 276.18414,-67.18565 -89.08395,-310.69611 -60.82002,13.40488 -0.89154,-0.82524 -13.03448,-91.26311 0.59624,-1.27079 469.61162,-103.52376 0.89341,0.82697 13.03448,91.26311 -0.59813,1.27426 -340.11514,74.97338 88.66076,309.23461 66.34793,-16.14065 0.89529,0.82524 13.0326,91.26311 -0.59436,1.27599 z M 692.84452,527.80233 c -0.0709,0 -0.12769,-0.0746 -0.1279,-0.16816 L 691.61631,57.65019 c -2.2e-4,-0.0935 0.0661,-0.1272 0.12978,-0.16813 l 76.68145,-49.28012 1.22634,519.43223 -0.1279,0.16816 z m 148.67012,-1.21531 -0.1279,-0.16817 -0.97053,-519.43228 177.66189,188.73287 c 0.054,0.0609 0.06,0.16825 0.014,0.23925 l -49.92217,76.7556 c -0.0462,0.071 -0.12673,0.0783 -0.18057,0.0173 l -49.66454,-56.17326 v 309.86052 c 0,0.0935 -0.057,0.16817 -0.1279,0.16817 z M 72.4961,903.25 c -0.136,0 -0.2461,-0.11006 -0.2461,-0.24609 V 797.24609 C 72.25,797.11006 72.3601,797 72.4961,797 h 930.7578 c 0.136,0 0.2461,0.11006 0.2461,0.24609 v 105.75782 c 0,0.13603 -0.1101,0.24609 -0.2461,0.24609 z" /><glyph
         glyph-name=""
         unicode="m"
         id="glyph72"
         d="m 109.57954,801.25 -0.69903,-0.77919 -10.201939,-86.42777 0.466018,-1.20373 216.186571,-63.6232 -69.73211,-294.22303 -47.60674,12.69599 -0.69729,-0.78269 -10.20368,-86.42427 0.46775,-1.20199 367.59507,-98.03533 0.69902,0.78269 10.20368,86.42427 -0.46775,1.20723 -266.2312,70.9976 69.40172,292.8376 51.93305,-15.28515 0.7025,0.78269 10.2002,86.42427 -0.46601,1.20723 z M 789.6058,641.85742 570.00062,123.84817 h 0.0435 L 569.46507,6.35742 h 0.13216 362.4028 v 162.40628 0.24459 l -66.16569,2.30089 c -0.0732,0 0,-0.10813 0,-0.24459 V 123.84817 H 657.7561 L 887.91099,641.85742 Z M 72.4961,903.25 c -0.136,0 -0.2461,-0.11006 -0.2461,-0.24609 V 797.24609 C 72.25,797.11006 72.3601,797 72.4961,797 h 930.7578 c 0.136,0 0.2461,0.11006 0.2461,0.24609 v 105.75782 c 0,0.13603 -0.1101,0.24609 -0.2461,0.24609 z" /><glyph
         glyph-name=""
         unicode="n"
         id="glyph73"
         d="m 136.01651,822.57143 -0.82863,-0.72742 -12.11645,-80.81436 0.5553,-1.12633 256.71854,-59.48986 -82.80668,-275.11031 -56.53247,11.86981 -0.82864,-0.73104 -12.11645,-80.81075 0.55531,-1.12452 436.51562,-91.66614 0.83037,0.73104 12.11473,80.81074 -0.55533,1.12814 -316.14517,66.38683 82.41225,273.81612 61.67211,-14.29215 0.8321,0.73104 12.11298,80.81075 -0.55185,1.12813 z m 454.39275,-281.41164 50.95861,-77.9859 200.07363,-1.45484 -58.3783,-81.53276 -38.8491,61.20101 H 652.33566 L 738.42402,310.88796 571.91628,60.85663 h 96.84681 L 789.65597,229.9653 907.26027,60.85663 h 80.86222 L 830.55504,302.15889 986.66759,538.25009 Z M 72.4961,903.25 c -0.136,0 -0.2461,-0.11006 -0.2461,-0.24609 V 797.24609 C 72.25,797.11006 72.3601,797 72.4961,797 h 930.7578 c 0.136,0 0.2461,0.11006 0.2461,0.24609 v 105.75782 c 0,0.13603 -0.1101,0.24609 -0.2461,0.24609 z" /><glyph
         glyph-name=""
         unicode="o"
         id="glyph74"
         d="m 438.78471,789.35714 4.67433,-186.1112 -305.61678,24.03133 -21.9494,-59.70208 0.93523,-0.82571 279.33246,-27.2912 -256.35559,-209.89594 h 0.24534 124.21457 l 175.59712,144.97554 0.78213,-144.97554 h 0.60504 105.55785 0.59951 l -1.07542,198.24222 317.18823,-27.87508 0.21766,128.04304 -98.42646,-0.0955 -0.83931,-52.29779 -215.63141,17.98413 -3.55647,126.63185 134.11109,-11.85099 -0.85222,61.75599 z m 234.97802,-472.81198 -64.81522,-5.6447 44.5924,-82.98248 232.22581,-164.15766 65.1528,5.40606 -44.92998,83.22113 z M 72.4961,903.25 c -0.136,0 -0.2461,-0.11006 -0.2461,-0.24609 V 797.24609 C 72.25,797.11006 72.3601,797 72.4961,797 h 930.7578 c 0.136,0 0.2461,0.11006 0.2461,0.24609 v 105.75782 c 0,0.13603 -0.1101,0.24609 -0.2461,0.24609 z" /><glyph
         glyph-name=""
         unicode="p"
         id="glyph75"
         d="m 246.14605,758.92857 -5.18176,-529.5713 h 82.82088 l 382.82755,46.9007 100.45768,-46.9007 -9.85659,74.15198 -90.60109,33.30543 -382.82755,-36.29606 V 511.83529 L 706.61272,472.6686 807.0704,512.68433 v 71.49702 L 706.61272,544.0183 323.78517,584.18135 v 174.74722 z m 539.70381,-30.55479 a 47.63963,42.559214 0 0 1 -47.63964,-42.55981 47.63963,42.559214 0 0 1 47.63964,-42.5583 47.63963,42.559214 0 0 1 47.63963,42.5583 47.63963,42.559214 0 0 1 -47.63963,42.55981 z m 0,-21.27915 a 23.819815,21.279607 0 0 0 23.81897,-21.28066 23.819815,21.279607 0 0 0 -23.81897,-21.27915 23.819815,21.279607 0 0 0 -23.82066,21.27915 23.819815,21.279607 0 0 0 23.82066,21.28066 z M 713.38913,264.54608 651.53197,258.84886 694.08888,175.11441 915.72623,9.46818 977.90905,14.92389 935.02649,98.90135 Z M 72.4961,903.25 c -0.136,0 -0.2461,-0.11006 -0.2461,-0.24609 V 797.24609 C 72.25,797.11006 72.3601,797 72.4961,797 h 930.7578 c 0.136,0 0.2461,0.11006 0.2461,0.24609 v 105.75782 c 0,0.13603 -0.1101,0.24609 -0.2461,0.24609 z" /><glyph
         glyph-name=""
         unicode="q"
         id="glyph76"
         d="m 279.82682,803.67857 -0.053,-50.34755 -56.52378,42.29475 -55.05431,-41.77027 111.49105,-83.70844 -0.0751,-73.34343 L 148.76676,694.7036 93.714194,652.93333 279.52464,513.42618 279.3847,378.20448 h 93.46161 l -0.0802,65.21389 55.72334,-41.83744 55.62947,42.20522 -111.4552,83.39343 -0.0905,73.2267 130.39944,-97.90478 55.62776,42.20682 -186.1295,139.26568 -0.14848,119.70457 z M 527.27088,475.95255 v -42.565 l 60.02931,-0.43015 162.86575,-49.51764 -86.71166,-85.00847 -136.1834,32.91316 -60.72564,0.95782 v -45.27538 l 60.72564,-0.28942 253.26727,-63.57007 v 42.33154 l -63.32152,15.91211 109.29114,105.46666 -45.96962,32.77563 -190.90663,55.86907 z m 68.50984,-226.34493 -70.57152,-5.1857 48.55184,-76.22811 252.85766,-150.79477 70.94017,4.965 -48.92219,76.44881 z M 72.4961,903.25 c -0.136,0 -0.2461,-0.11006 -0.2461,-0.24609 V 797.24609 C 72.25,797.11006 72.3601,797 72.4961,797 h 930.7578 c 0.136,0 0.2461,0.11006 0.2461,0.24609 v 105.75782 c 0,0.13603 -0.1101,0.24609 -0.2461,0.24609 z" /><glyph
         glyph-name=""
         unicode="r"
         id="glyph77"
         d="m 472.48635,788.32143 -392.459088,-1.9009 c -0.29672,0 -0.53251,-0.25883 -0.52718,-0.57463 l 0.83998,-49.59729 0.54622,-0.56818 329.907378,1.59831 c 16.31919,0.0793 -80.63705,-93.90138 -75.28786,-70.25934 l 8.65218,38.24016 c -15.03871,4.14157 -30.8821,7.4886 -46.24609,11.06901 l -0.32075,-0.2189 -58.84568,-265.02216 0.20642,-0.34123 46.04127,-10.72939 0.32075,0.2189 33.62746,151.93377 c 67.8887,11.45716 154.45449,126.88192 154.09121,195.58368 0,0.31575 -0.24954,0.5696 -0.54622,0.56819 z m -99.90428,-284.39013 -49.66474,-5.50311 34.16892,-80.87285 177.95023,-159.98323 49.92515,5.26812 -34.43092,81.10625 z M 599.69686,397.32465 c -0.0515,0 -0.0936,-0.0524 -0.0937,-0.1175 l -0.80027,-326.6301 c -1.6e-4,-0.0651 0.0471,-0.089 0.0937,-0.11744 l 55.78748,-34.24843 0.89237,360.99597 -0.0937,0.1175 z m 108.15955,-0.84503 -0.0938,-0.11588 -0.70656,-360.99603 129.25248,131.16389 c 0.0391,0.0421 0.0431,0.118 0.01,0.1674 l -36.31884,53.34276 c -0.0341,0.0492 -0.091,0.0552 -0.13025,0.0128 L 763.73617,181.0145 v 215.34924 c 0,0.0651 -0.0422,0.11588 -0.0937,0.11588 z M 72.4961,903.25 c -0.136,0 -0.2461,-0.11006 -0.2461,-0.24609 V 797.24609 C 72.25,797.11006 72.3601,797 72.4961,797 h 930.7578 c 0.136,0 0.2461,0.11006 0.2461,0.24609 v 105.75782 c 0,0.13603 -0.1101,0.24609 -0.2461,0.24609 z" /><glyph
         glyph-name=""
         unicode="s"
         id="glyph78"
         d="m 222.44065,793.96255 -0.80881,-0.6822 -11.81076,-75.80494 0.54147,-1.05522 250.23248,-55.80177 -80.7142,-258.05353 -55.10449,11.13451 -0.80712,-0.68548 -11.81076,-75.80004 0.54147,-1.05521 425.48694,-85.9824 0.80882,0.68711 11.80907,75.79841 -0.54147,1.06012 -308.15768,62.27044 80.3301,256.83637 60.11475,-13.40525 0.81051,0.68548 11.80738,75.80003 -0.53809,1.06012 z M 776.29096,459.88158 725.3744,413.21023 847.54471,304.12611 729.87196,202.80963 714.3386,218.12735 654.42183,168.99385 673.35628,155.16652 552.58869,55.58906 621.38384,12.39096 736.62,104.97286 855.6938,-3.9574 l 55.22463,50.16246 -118.0484,101.90873 174.05646,151.906 z M 72.4961,903.25 c -0.136,0 -0.2461,-0.11006 -0.2461,-0.24609 V 797.24609 C 72.25,797.11006 72.3601,797 72.4961,797 h 930.7578 c 0.136,0 0.2461,0.11006 0.2461,0.24609 v 105.75782 c 0,0.13603 -0.1101,0.24609 -0.2461,0.24609 z" /><glyph
         glyph-name=""
         unicode="t"
         id="glyph79"
         d="M 350.76923,800.5437 55.513188,580.92125 133.56783,501.12468 428.82201,720.74713 Z m 225.77738,-50.77523 -439.96376,-351.35642 88.974,-73.11628 53.3116,50.16558 1.28518,-341.40092 h 106.04911 l -1.28331,414.11882 271.52238,220.23557 z M 905.24929,484.11299 424.84075,250.13575 l -0.0675,-0.55077 72.90642,-42.07368 1.00191,-0.0347 263.65553,128.41201 -90.96462,-277.74481 0.38463,-0.433 86.13163,-13.56504 0.60037,0.27714 112.84082,344.54796 107.75827,52.48471 0.0635,0.55078 -72.90451,42.07367 z M 72.4961,903.25 c -0.136,0 -0.2461,-0.11006 -0.2461,-0.24609 V 797.24609 C 72.25,797.11006 72.3601,797 72.4961,797 h 930.7578 c 0.136,0 0.2461,0.11006 0.2461,0.24609 v 105.75782 c 0,0.13603 -0.1101,0.24609 -0.2461,0.24609 z" /><glyph
         glyph-name=""
         unicode="u"
         id="glyph80"
         d="m 203.39952,758.79751 v -74.33467 l 99.38226,-0.75071 269.63208,-86.47738 -143.55345,-148.45836 -225.46089,57.48137 -100.53543,1.67111 v -79.06822 l 100.53543,-0.50454 419.29827,-111.01965 v 73.92799 L 517.866,419.05414 698.8031,603.23731 622.69779,660.4771 306.64157,758.04681 Z M 617.10721,279.4834 528.06539,273.67197 589.3264,188.24649 908.36361,19.25622 997.8725,24.82151 936.14647,110.49314 Z M 72.4961,903.25 c -0.136,0 -0.2461,-0.11006 -0.2461,-0.24609 V 797.24609 C 72.25,797.11006 72.3601,797 72.4961,797 h 930.7578 c 0.136,0 0.2461,0.11006 0.2461,0.24609 v 105.75782 c 0,0.13603 -0.1101,0.24609 -0.2461,0.24609 z" /><glyph
         glyph-name=""
         unicode="v"
         id="glyph81"
         d="M 30.272193,831 40.903533,695.89884 204.63857,625.06415 h 466.00449 l -436.8846,-356.307 -113.8049,-58.81464 v -92.26936 h 158.60115 l 571.63098,507.391 -197.12413,118.57967 H 171.87372 Z M 765.76539,791.67036 c -0.12299,0 -0.2222,-0.0755 -0.2222,-0.17088 v -95.02453 c 0,-0.095 0.0993,-0.17088 0.2222,-0.17088 h 69.87137 c 0.12299,0 0.22023,0.0762 0.22023,0.17088 v 95.02453 c 0,0.095 -0.0972,0.17088 -0.22023,0.17088 z m 82.72515,-0.62656 c -0.12299,0 -0.22219,-0.078 -0.22219,-0.1725 v -95.0229 c 0,-0.095 0.0993,-0.17088 0.22219,-0.17088 h 69.86734 c 0.12299,0 0.2223,0.0754 0.2223,0.17088 v 95.0229 c 0,0.0949 -0.0993,0.1725 -0.2223,0.1725 z M 903.9727,350.16188 482.48558,174.08902 l -0.061,-0.41499 63.96366,-31.66129 0.88094,-0.0244 231.3193,96.63241 -79.80978,-209.00839 0.33951,-0.32546 75.5668,-10.20879 0.52736,0.20998 99.0015,259.27747 94.54242,39.49564 0.055,0.41498 -63.96374,31.66129 z M 12.518293,903.25 c -0.136,0 -0.2461,-0.11006 -0.2461,-0.24609 V 797.24609 c 0,-0.13603 0.1101,-0.24609 0.2461,-0.24609 H 943.27609 c 0.136,0 0.2461,0.11006 0.2461,0.24609 v 105.75782 c 0,0.13603 -0.1101,0.24609 -0.2461,0.24609 z" /><glyph
         glyph-name=""
         unicode="w"
         id="glyph82"
         d="M 317.0417,793.75 51.25,528.49237 92.70748,492.48744 231.2468,625.57572 309.3559,550.96907 171.04221,412.0158 204.34546,379.972 379.3089,548.30961 l 3.37739,-52.69418 74.34047,-39.48929 H 668.60727 L 470.24711,257.49019 418.57842,224.70399 v -51.44034 h 72.00802 l 259.53821,282.86249 -89.50006,66.10695 H 442.15063 l -50.32312,38.11997 82.96124,79.81997 -35.02664,30.56724 c -45.06187,-13.48289 -86.45736,30.76618 -83.84984,80.6927 z m 101.41334,-42.01017 c -0.0612,0 -0.10788,-0.0461 -0.10788,-0.10558 V 692.1215 c 0,-0.0595 0.0474,-0.10889 0.10788,-0.10889 h 28.37215 c 0.0612,0 0.10798,0.0494 0.10798,0.10889 v 59.51275 c 0,0.0595 -0.0473,0.10558 -0.10798,0.10558 z m 40.78091,-0.0346 c -0.0612,0 -0.10986,-0.0493 -0.10986,-0.10888 v -59.5111 c 0,-0.0595 0.0494,-0.10724 0.10986,-0.10724 h 28.37017 c 0.0602,0 0.10995,0.0478 0.10995,0.10724 v 59.5111 c 0,0.0595 -0.0494,0.10889 -0.10995,0.10889 z M 307.41468,704.12704 c -6.21281,-41.52729 21.54514,-81.72016 78.59698,-79.26398 l -38.35201,-40.58805 -81.92028,80.20437 z M 711.79584,549.00752 c -0.0563,0 -0.10028,-0.0425 -0.10028,-0.0956 v -52.97463 c 0,-0.053 0.0444,-0.0956 0.10028,-0.0956 h 31.72249 c 0.0553,0 0.10028,0.043 0.10028,0.0956 v 52.97463 c 0,0.053 -0.0444,0.0956 -0.10028,0.0956 z m 37.55966,-0.34976 c -0.0563,0 -0.10226,-0.043 -0.10226,-0.0956 v -52.97465 c 0,-0.053 0.0464,-0.0957 0.10226,-0.0957 h 31.72051 c 0.0563,0 0.10225,0.0425 0.10225,0.0957 v 52.97465 c 0,0.0529 -0.0464,0.0956 -0.10225,0.0956 z m -28.42427,-148.6293 c -0.0602,0 -0.10965,-0.0557 -0.10985,-0.12538 L 719.8787,49.6798 c -1.9e-4,-0.0693 0.0553,-0.0949 0.10995,-0.12535 l 65.70234,-36.72099 1.05252,387.06963 -0.10985,0.12538 z m 127.38355,-0.90573 -0.10984,-0.12538 -0.83085,-387.06966 152.22601,140.63939 c 0.0464,0.0453 0.0513,0.12526 0.0119,0.17819 l -42.77413,57.19644 c -0.0395,0.053 -0.10808,0.0585 -0.15417,0.0132 l -42.55432,-41.86003 v 230.90246 c 0,0.0696 -0.0494,0.12538 -0.10995,0.12538 z M 72.4961,903.25 c -0.136,0 -0.2461,-0.11006 -0.2461,-0.24609 V 797.24609 C 72.25,797.11006 72.3601,797 72.4961,797 h 930.7578 c 0.136,0 0.2461,0.11006 0.2461,0.24609 v 105.75782 c 0,0.13603 -0.1101,0.24609 -0.2461,0.24609 z" /><glyph
         glyph-name=""
         unicode="x"
         id="glyph83"
         d="M 98.113888,803.75 97.38466,803.14671 86.75,736.27187 87.237292,735.34081 312.59777,686.1102 239.90591,458.4501 l -49.62669,9.82205 -0.72738,-0.60487 -10.63651,-66.87166 0.48738,-0.93107 383.19469,-75.85609 0.72923,0.60487 10.63466,66.87326 -0.48738,0.93423 -277.52667,54.93573 72.34541,226.58811 54.13716,-11.82668 0.73098,0.60487 10.63466,66.87325 -0.48544,0.93423 z M 638.26745,625.74645 473.62862,477.32308 525.37785,436.73011 644.15154,540.85211 749.0652,449.50052 474.87582,208.62665 524.71368,162.07679 843.49565,442.6395 Z m 209.35249,-199.53827 -40.76081,-40.12585 97.80213,-93.78376 -94.20312,-87.1064 -12.43412,13.16944 -47.96797,-42.24132 15.15788,-11.88685 -96.6795,-85.61166 55.07395,-37.13791 92.25202,79.59463 95.32575,-93.6508 44.21001,43.12645 -94.50448,87.61473 139.34272,130.59863 z M 72.4961,903.25 c -0.136,0 -0.2461,-0.11006 -0.2461,-0.24609 V 797.24609 C 72.25,797.11006 72.3601,797 72.4961,797 h 930.7578 c 0.136,0 0.2461,0.11006 0.2461,0.24609 v 105.75782 c 0,0.13603 -0.1101,0.24609 -0.2461,0.24609 z" /><glyph
         glyph-name=""
         unicode="y"
         id="glyph84"
         d="m 536.11582,782.5 c -0.13935,0 -0.25308,-0.0813 -0.25308,-0.18152 v -0.39195 L 92.244615,685.38443 h -8.117883 c -0.139449,0 -0.253077,-0.0813 -0.253077,-0.18152 v -1.64009 L 82,683.1532 83.873655,678.70841 V 402.26709 c 0,-0.10018 0.113628,-0.18152 0.253077,-0.18152 H 193.65622 c 0.13945,0 0.25124,0.0814 0.25124,0.18152 V 634.08057 L 535.86274,708.4967 V 279.77107 c 0,-0.10018 0.11373,-0.17991 0.25308,-0.17991 h 112.58555 c 0.13945,0 0.25124,0.0797 0.25124,0.17991 v 502.54741 c 0,0.1002 -0.11179,0.18152 -0.25124,0.18152 z m 402.3656,-425.95948 -394.02665,-173.79506 -0.0571,-0.40962 59.79634,-31.25169 0.82354,-0.0257 216.24854,95.38231 -74.60997,-206.30453 0.31729,-0.32125 70.64362,-10.07672 0.49291,0.20726 92.55141,255.92329 88.38286,38.98469 0.0512,0.40962 -59.79644,31.2517 z M 72.4961,903.25 c -0.136,0 -0.2461,-0.11006 -0.2461,-0.24609 V 797.24609 C 72.25,797.11006 72.3601,797 72.4961,797 h 930.7578 c 0.136,0 0.2461,0.11006 0.2461,0.24609 v 105.75782 c 0,0.13603 -0.1101,0.24609 -0.2461,0.24609 z" /><glyph
         glyph-name=""
         unicode="z"
         id="glyph85"
         d="M 354.00664,798 280.88601,722.85956 456.33444,547.23914 287.34466,384.12693 265.03965,408.78661 178.98942,329.68528 206.18332,307.42358 32.75,147.10927 131.54475,77.56303 297.03706,226.61374 468.03838,51.24125 547.34682,132.00153 377.81536,296.06877 627.77765,540.6291 Z M 657.35191,682.95136 c -0.11148,-10e-6 -0.20133,-0.0862 -0.20133,-0.19196 V 576.96354 c 0,-0.10578 0.0903,-0.18877 0.20133,-0.18877 h 52.07521 c 0.11166,0 0.1996,0.083 0.1996,0.18877 V 682.7594 c 0,0.10578 -0.0885,0.19196 -0.1996,0.19196 z m 74.85239,-0.0656 c -0.11157,0 -0.20133,-0.0862 -0.20133,-0.19196 V 576.89954 c 0,-0.10579 0.0903,-0.19037 0.20133,-0.19037 h 52.07521 c 0.11157,0 0.20133,0.0846 0.20133,0.19037 v 105.79427 c 0,0.10577 -0.0894,0.19196 -0.20133,0.19196 z M 884.94506,359.59043 513.25594,186.51356 l -0.0538,-0.40793 56.40646,-31.12255 0.77686,-0.0255 203.98931,94.98816 -70.38029,-205.45198 0.2993,-0.32 66.6388,-10.035 0.46496,0.20632 87.30464,254.86577 83.37239,38.8236 0.0483,0.40793 -56.40655,31.12255 z M 72.4961,903.25 c -0.136,0 -0.2461,-0.11006 -0.2461,-0.24609 V 797.24609 C 72.25,797.11006 72.3601,797 72.4961,797 h 930.7578 c 0.136,0 0.2461,0.11006 0.2461,0.24609 v 105.75782 c 0,0.13603 -0.1101,0.24609 -0.2461,0.24609 z" /></font>
</defs>
</svg>
